<svg xmlns="http://www.w3.org/2000/svg" viewBox="0 0 439.1489 158.4358"><defs><style>.cls-1{isolation:isolate;}.cls-2{fill:#643812;}.cls-3{mix-blend-mode:multiply;}.cls-4{fill:#65370d;}.cls-5{fill:#fff;}</style></defs><g class="cls-1"><g id="Capa_1" data-name="Capa 1"><path class="cls-2" d="M112.8724,46.8945l.0391-.037a1.48,1.48,0,0,1,.791-.3033l.0313,0a.666.666,0,0,1,.7558.6671l-.0025-.0284a.6152.6152,0,0,1-.6074.7847l.0143-.0008C113.2785,47.8757,112.6784,47.76,112.8724,46.8945Z"/><path class="cls-2" d="M114.6155,40.7516l.0814.0732c.3109.5247.0352.7543-.4436.8815l.0088-.0011c-.4811,0-.7908-.1577-.66-.7194l.12-.1619A.9351.9351,0,0,1,114.6155,40.7516Z"/><path class="cls-2" d="M224.6122.0861c-.1788.2217-.0026.7191-.5192.6734a.209.209,0,0,1-.1466-.12c-.15-.5.3827-.415.5573-.64Z"/><path class="cls-2" d="M330.6709,63.6166c2.085.9637,4.0981,1.9483,6.5676,1.78,1.76-.12,2.0753,1.7946,2.8039,2.9871.3009.4923.2579,1.1925.551,1.6926.5444.929,1.82,1.6787,1.2291,2.8994-.9473,1.9551-1.1029,4.4026-3.2669,5.6575a6.4834,6.4834,0,0,0-2.4386,2.2291c-.9985,1.6573-2.9923,1.5183-4.447,2.3744-1.7348,1.0209-3.0785-.1053-4.4209-1.0683a6.9711,6.9711,0,0,0-2.7585-1.3208,1.5067,1.5067,0,0,1-1.3066-2.0816,6.7583,6.7583,0,0,0-.4483-4.5177c-.73-1.8045-.08-3.7045-.4551-5.5656-.2474-1.227,2.62-3.982,3.9536-4.0767,1.5446-.11,2.8363-1.2583,4.4468-.9905Z"/><path class="cls-2" d="M81.2906,62.6757a5.7654,5.7654,0,0,1,1.6606,6.4206,5.3444,5.3444,0,0,1-4.93,3.838,3.1329,3.1329,0,0,1-3.0762-1.3961,6.8861,6.8861,0,0,0-4.672-3.1638c-1.57-.2723-2.0331-1.4007-1.4717-3.1412a6.6817,6.6817,0,0,1,7.4338-4.4677C79.7952,61.3573,79.7952,61.3573,81.2906,62.6757Z"/><path class="cls-2" d="M296.8293,77.0067c-.3418.8852-.7222.78-1.1273.0449l.0731-.1344a.9569.9569,0,0,1,.8434-.1738l-.077.0033c.1829-.0643.2868-.045.313.0579a.244.244,0,0,1-.02.217Z"/><path class="cls-2" d="M142.6154,32.6938a7.5808,7.5808,0,0,1,3.9716,1.607c1.6557,1.36,1.89,2.3359.6436,4.15-.707,1.0294-1.2784,2.1948-2.8517,2.3177-2.2093.1727-3.587-.6342-4.5251-2.9587-.5191-1.2861.3071-3.4907,1.6762-4.4415C141.88,33.1254,142.2543,32.9177,142.6154,32.6938Z"/><path class="cls-2" d="M181.7955,49.534c-.8394-.8375-1.93-1.6855-1.602-3.1456.2662-1.1845,2.1326-1.9613,3.8856-1.7418a4.1888,4.1888,0,0,1,1.9414.543c1.3059.8866,2.1118,2.6737,1.6023,3.6259a3.2441,3.2441,0,0,1-4.7042,1.4864A12.6009,12.6009,0,0,1,181.7955,49.534Z"/><path class="cls-2" d="M253.2389,80.53c.6794-.8588,1.3226-1.75,2.0546-2.5615a3.693,3.693,0,0,1,1.2627-.8263c.7256-.3168,1.56-.4923,2.1041.2366a1.8894,1.8894,0,0,1-.0909,2.3771,6.654,6.654,0,0,1-2.8518,2.0713c-.7767.33-1.63.4771-2.44.7344-.4381.1391-.8778.1942-1.1434-.2191-.2961-.4607.1322-.7586.39-1.0753.2144-.263.4219-.5317.6325-.7979Z"/><path class="cls-2" d="M145.3256,117.4726c.4809-2.31,1.915-4.1632,3.14-6.0671a2.87,2.87,0,0,1,3.1259-1.2687c1.3749.3225,2.6376-.925,4.0671-.5654,1.8442.4639,3.8646.68,4.5866,2.9186-.11,1.2894-1.548,1.8371-1.7251,3.0889-.7508,2.0985-2.8135,3.31-3.6381,5.3666-.0782.1948-.4275.4471-.5988.4127-1.5731-.3151-3.0294.674-4.4951.5009a4.2109,4.2109,0,0,1-3.1341-2.5642A8.6551,8.6551,0,0,0,145.3256,117.4726Z"/><path class="cls-2" d="M158.52,115.5789c-.11-1.4121,1.1764-2.0445,1.7252-3.0888a1.5654,1.5654,0,0,1,.339.2662c-.35.7865-1.3782,1.6708.4364,2.0616.6451.1388.6512.8813.739,1.4521l-.5443.65a.6587.6587,0,0,0-.6915.1579A2.1248,2.1248,0,0,1,159.49,115.68C159.3015,114.96,158.8658,115.4408,158.52,115.5789Z"/><path class="cls-2" d="M202.3368,23.7205c.5831-1.9423,2.2138-2.62,3.8993-3.2308,1.4176.4708,2.6954.8435,3.3941,2.5723,1.1281,2.79-.2965,5.2715-3.3149,5.1463a5.7392,5.7392,0,0,1-.76-.0822C202.8859,27.6542,202.31,26.8639,202.3368,23.7205Z"/><path class="cls-2" d="M267.9853,20.5184c-.71-.5356-1.3949-1.2048-.9815-2.12.4368-.9669.756-2.11,1.8748-2.6035a1.1257,1.1257,0,0,1,.7327.0018c.93.3,2.6864,3.1554,2.5682,4.1264a1.806,1.806,0,0,1-2.16,1.6083A5.9887,5.9887,0,0,1,267.9853,20.5184Z"/><path class="cls-2" d="M160.4935,77.5a2.8039,2.8039,0,0,1,2.2449-1.188c.37.3449.864.6248,1.0851,1.0476a5.6929,5.6929,0,0,0,2.2332,2.7014,1.6385,1.6385,0,0,1,.5076,2.4665,1.8641,1.8641,0,0,1-2.2488.7448c-2.48-.6088-3.3262-1.5831-3.6666-4.2481C160.5842,78.5173,160.5447,78.0078,160.4935,77.5Z"/><path class="cls-2" d="M185.8025,55.0459a1.7513,1.7513,0,0,0-.1029.4955,5.1944,5.1944,0,0,1-3.8687,5.9485c-2.1671.6632-3.7634-.5367-5.3688-1.6857.2075-1.078.4026-2.1587.6254-3.2335a4.5037,4.5037,0,0,1,3.4942-3.56A4.7963,4.7963,0,0,1,185.8025,55.0459Z"/><path class="cls-2" d="M176.4483,106.87a1.3667,1.3667,0,0,0,.4808,1.0455c-.1523,1.0885.5409,2.5545-1.1754,2.9645-.8351.1994-2.17-1.1626-2.5855-2.525a3.0383,3.0383,0,0,1-.1309-1.2476c.0876-.6558.0791-1.4337.8885-1.7036a1.5835,1.5835,0,0,1,1.6047.5707C175.8454,106.2627,176.143,106.57,176.4483,106.87Z"/><path class="cls-2" d="M97.1919,86.3474a3.3044,3.3044,0,0,1-1.8437,1.7071c-.9487.3055-1.9517.907-2.654-.464-.477-.9314-1.1222-1.7972-.0663-2.7538a2.4619,2.4619,0,0,1,3.2866-.106,11.6188,11.6188,0,0,1,1.2777,1.6047l.19-.02Z"/><path class="cls-2" d="M298.7755,21.2692c-.1814.9593-.4212,1.8625-1.6317,1.9984a3.9267,3.9267,0,0,1-3.1379-1.4749,1.4358,1.4358,0,0,1,.2887-1.8684,2.272,2.272,0,0,1,3.0266-.4346A11.9387,11.9387,0,0,1,298.7755,21.2692Z"/><path class="cls-2" d="M244.0947,122.88c.1606,1.0677.1736,2.0788-1.0376,2.5953a2.0417,2.0417,0,0,1-1.9754.0019,1.21,1.21,0,0,1-.4381-1.3762,1.9461,1.9461,0,0,1,1.4847-1.6,2.6906,2.6906,0,0,1,1.969.3945Z"/><path class="cls-2" d="M247.027,103.3862c.1309.93.4245,1.94-.7226,2.4566a2.3328,2.3328,0,0,1-2.599-.589c-.4709-.4022-.9339-.8281-.6844-1.5189a1.8426,1.8426,0,0,1,1.7174-1.3225,3.4313,3.4313,0,0,1,2.2957.9959Z"/><path class="cls-2" d="M131.2466,118.5324c.1935.162.3939.3166.58.4873a1.6505,1.6505,0,0,1,.279,2.455,1.4139,1.4139,0,0,1-1.8231.4307,1.8625,1.8625,0,0,1-1.2653-1.9821,1.387,1.387,0,0,1,1.7374-1.3687,2.8408,2.8408,0,0,0,.5019-.0251Z"/><path class="cls-2" d="M84.3135,90.6548c.9957.7542,1.1784,1.5747.5627,2.3859a1.3387,1.3387,0,0,1-2.0116.3405,2.243,2.243,0,0,1-.6383-2.7375A1.5689,1.5689,0,0,1,84.3135,90.6548Z"/><path class="cls-2" d="M185.4321,73.8037c.4747-.5428,1.0586-.945,1.7354-.5135a1.2571,1.2571,0,0,1,.4135,1.94,1.1534,1.1534,0,0,1-1.7514.3058A1.19,1.19,0,0,1,185.4321,73.8037Z"/><path class="cls-2" d="M163.5839,55.2524q.3865.5979.7735,1.1956a11.2893,11.2893,0,0,1-.869,1.8509,1.5494,1.5494,0,0,1-1.8742.4311,1.5982,1.5982,0,0,1-.9917-1.3981,1.4724,1.4724,0,0,1,.7484-1.519A4.2432,4.2432,0,0,1,163.5839,55.2524Z"/><path class="cls-2" d="M158.6792,44.4526c-1.6434-.895-2.3942-1.9758-2.1218-3.2874.32-1.5414,1.4717-2.148,2.9228-2.3244.2967.1663.6089.31.8874.5027,1.6767,1.159,1.771,2.1954.44,3.7583A5.9894,5.9894,0,0,1,158.6792,44.4526Z"/><path class="cls-2" d="M50.0615,92.1754a1.3278,1.3278,0,0,1,1.8608-.0011.87.87,0,0,1-.0615,1.3327,1.0154,1.0154,0,0,1-1.5559-.0383A.9258.9258,0,0,1,50.0615,92.1754Z"/><path class="cls-2" d="M134.2038,62.9111c-.4859.6455-.2544,1.6464-1.0582,2.1343-.4154-.2938-.8412-.574-1.2435-.8847a1.26,1.26,0,0,1-.5378-1.5551c.3253-.7542,1.0135-.836,1.73-.6884C133.6428,62.03,133.9047,62.5,134.2038,62.9111Z"/><path class="cls-2" d="M216.0222,98.3657c-2.3343-.1063-2.3343-.1063-2.7112-2.7786.066-.051.1295-.106.1985-.1528,1.7608-1.1932,2.7083-1.2545,3.4735-.2256C217.6884,96.1572,217.4586,96.9126,216.0222,98.3657Z"/><path class="cls-2" d="M173.1632,146.1987a.6472.6472,0,0,0,.048-.733,1.129,1.129,0,0,1,.7813-.9961l1.4834,1.1025a5.1732,5.1732,0,0,1-.463,4.0871,10.28,10.28,0,0,0-1.7453-2.7447A.639.639,0,0,0,173.1632,146.1987Z"/><path class="cls-2" d="M167.5933,138.3725a.6435.6435,0,0,0-.1518-.6863,20.23,20.23,0,0,1,1.3-1.5592,1.0813,1.0813,0,0,1,1.5907-.1121c.61.5371.26,1.1067-.1142,1.56a12.0336,12.0336,0,0,1-1.2988,1.1918Z"/><path class="cls-2" d="M85.53,104.4349a.6226.6226,0,0,0-.6939.1915c-.0737-.0389-.1459-.081-.2214-.1162a1.6465,1.6465,0,0,1-1.0645-2.2081c.2172-.6225.4851-1.3416,1.2412-1.4263.9891-.1106,1.4457.66,1.86,1.4053A5.2979,5.2979,0,0,1,85.53,104.4349Z"/><path class="cls-2" d="M44.4466,99.3332c-1.6121.5321-1.96-.7453-2.5-1.7467a7.3771,7.3771,0,0,1,1.0455-1.3645c1.3262-1.09,1.7914-.8882,2.4307.9375.1088.6893,1.1153,1.4658-.1968,2.017l.0478-.0124A.672.672,0,0,0,44.4466,99.3332Z"/><path class="cls-2" d="M46.198,97.7716a.69.69,0,0,0,.4014.2573,1.0727,1.0727,0,0,1-.43,1.2146.9153.9153,0,0,1-.6564.1334.3539.3539,0,0,1-.2868-.2005c.52-.6281.0646-1.3512.1968-2.017Z"/><path class="cls-2" d="M48.1877,96.1131c-.2434.432-.5171.801-1.0986.5251a.6963.6963,0,0,0-.2351-.3646C47.2148,95.5216,47.6521,95.408,48.1877,96.1131Z"/><path class="cls-2" d="M206.3143,123.22a.6363.6363,0,0,0,.1308.7069c-.2585.3223-.4533.7659-.7885.9427a1.247,1.247,0,0,1-1.8832-.6313c-.3662-.9246.2144-1.3952,1.11-1.52.2458-.0343.4938-.0536.7408-.08Q205.9692,122.9294,206.3143,123.22Z"/><path class="cls-2" d="M218.932,79.8479c.357,2.783.3341,2.8332-1.6657,3.6642-1.1771-1.602-1.1176-2.9062.1453-3.9586C218.0683,79.0064,218.49,79.4214,218.932,79.8479Z"/><path class="cls-2" d="M171.356,90.3c-.3291-.39-.3082-.6992.0045-.9373a.5859.5859,0,0,1,.8828.1261.5455.5455,0,0,1-.0809.6953A.5991.5991,0,0,1,171.356,90.3Z"/><path class="cls-2" d="M106.7122,68.532a.571.571,0,0,0-.7068.0436c-.38-.41-1.1091-.734-.4708-1.4387a.9149.9149,0,0,1,1.1927-.0874C107.484,67.5189,107.1173,68.04,106.7122,68.532Z"/><path class="cls-2" d="M99.5087,76.8881a3.4753,3.4753,0,0,1-1.2022,1.4493,3.0629,3.0629,0,0,1-1.7649-.75c-.059-.8648-.0855-1.7841.9167-2.11C98.659,75.0872,99.0314,76.1116,99.5087,76.8881Z"/><path class="cls-2" d="M117.5115,77.7073a.61.61,0,0,0-.1225-.6831,3.3023,3.3023,0,0,1,.6662-.3161c.4346-.1.8724-.0046.9411.4949.07.5065-.33.712-.7779.7095A2.6451,2.6451,0,0,1,117.5115,77.7073Z"/><path class="cls-2" d="M46.7277,100.1979a2.2642,2.2642,0,0,1-.2333.3267c-.4141-.3082-.9608-.503-.9817-1.1477q.1344-.0206.2691-.039A.8928.8928,0,0,1,46.7277,100.1979Z"/><path class="cls-2" d="M44.4466,99.3332a.624.624,0,0,1,.827-.1693A.873.873,0,0,1,44.4466,99.3332Z"/><path class="cls-2" d="M100.27,124.9532a.5933.5933,0,0,0,.0494.71c-.5814,1.103-1.3926,1.148-2.4852.72-.8666-.34-1.1886-1.0879-1.7218-1.6869a2.0452,2.0452,0,0,1,1.8894-1.5475A5.5916,5.5916,0,0,1,100.27,124.9532Z"/><path class="cls-2" d="M198.9687,49.6485c1.4343,1.46,1.4338,1.55-.016,3.0089-.87-.2128-1.5852-.6232-1.56-1.6362C197.4172,50.0511,198.368,50.0239,198.9687,49.6485Z"/><path class="cls-2" d="M328.2444,55.1494l1.3887.3827c.0877.8709-.1348,1.61-1.1716,1.2947C327.434,56.5145,327.5944,55.8067,328.2444,55.1494Z"/><path class="cls-2" d="M143.637,132.86c1.1465-.47,1.7137.199,2.1633,1.1-.3544.8816-.9576,1.4315-1.9176,1.01C142.7171,134.4574,143.3839,133.6068,143.637,132.86Z"/><path class="cls-2" d="M243.4837,130.2609c-.3877.729-.67,1.5985-1.7382,1.53-1.1385-.0729-1.512-.872-1.6656-1.8511C241.544,128.3305,241.8323,128.3578,243.4837,130.2609Z"/><path class="cls-2" d="M279.62,54.1264c.29.2146.8923.1827.6725.8012a.4013.4013,0,0,1-.5856.2559c-.5283-.2961-.2154-.692-.0738-1.0581Z"/><path class="cls-2" d="M165.1862,28.7926a.6259.6259,0,0,0,.0228.7137c-.3652.891-1.1349.877-1.9087.8542l-.67-.5564a1.4615,1.4615,0,0,1,.9382-1.7863C164.3871,27.7068,164.7747,28.2681,165.1862,28.7926Z"/><path class="cls-2" d="M151.0728,64.3779q.35.2643.6994.5282c-.2311.5152-.4828,1.2914-1.1644.7643C149.8792,65.1067,150.6756,64.7348,151.0728,64.3779Z"/><path class="cls-2" d="M46.7277,100.1979q-.4738-.43-.9468-.86.41-.6546.8187-1.3091a.6141.6141,0,0,1,.4187-.181c.4688-.0687.6828.2605.9039.5787C48.0234,99.3537,47.4409,99.82,46.7277,100.1979Z"/><path class="cls-2" d="M47.9222,98.4266l-.904-.5787.6417-.2048Q47.791,98.0349,47.9222,98.4266Z"/><path class="cls-2" d="M172.4428,133.052l.5149-.6887c.349.27,1.0462.4607.4706,1.0473C173.0319,133.8145,172.7307,133.3027,172.4428,133.052Z"/><path class="cls-2" d="M245.5507,92.7073a.518.518,0,0,1-.6417-.1773.4109.4109,0,0,1,.0686-.4.4329.4329,0,0,1,.6088.1725C245.6476,92.3861,245.5664,92.5741,245.5507,92.7073Z"/><path class="cls-2" d="M179.9077,23.02c.7353-1.757.8128-1.779,2.1832-.6167C181.2674,23.8237,181.2232,23.8362,179.9077,23.02Z"/><path class="cls-2" d="M354.3324,58.2972c-1.59-1.2242-1.5891-1.2712.0239-2.9606C355.8846,56.6394,355.8831,56.8268,354.3324,58.2972Z"/><path class="cls-2" d="M140.5626,19.5378a2.99,2.99,0,0,1,1.08-1.4614,2.91,2.91,0,0,1,1.3827,1.1751C142.0093,20.6557,141.766,20.684,140.5626,19.5378Z"/><path class="cls-2" d="M265.3494,31.0471l-.4858.6323c-.2753-.234-.9745-.2794-.5565-.8532C264.6842,30.3087,265.0347,30.7914,265.3494,31.0471Z"/><path class="cls-2" d="M237.382,73.388a.4362.4362,0,0,0,.2764.2257c-.1642.3249-.3234.9472-.728.6222C236.5291,73.9137,237.098,73.6184,237.382,73.388Z"/><path class="cls-2" d="M203.5815,98.7338l1.0261.7944a2.2463,2.2463,0,0,1-1.1168,1.54C202.1,99.9057,202.1022,99.8366,203.5815,98.7338Z"/><path class="cls-2" d="M91.67,99.4926l.5823-.6168c.2961.2157.833.3783.4989.8568C92.2947,100.3865,91.9885,99.7851,91.67,99.4926Z"/><path class="cls-2" d="M76.0107,85.335c.048.038.1229.0667.1329.1105.0425.1826-.067.2642-.2941.2071-.0236-.0059-.0332-.1645-.0067-.2365C75.8588,85.3725,75.9568,85.3588,76.0107,85.335Z"/><path class="cls-2" d="M156.8269,56.9162l-.7155-.6091a2.1431,2.1431,0,0,1,.8744-1.1385c.3971.2336,1.0214.2677,1.0429.8637C158.0578,56.8332,157.3188,56.74,156.8269,56.9162Z"/><path class="cls-2" d="M288.1016,11.4857a2.1557,2.1557,0,0,1-.8392,1.0474,1.042,1.042,0,0,1-.52-1.5034A2.3912,2.3912,0,0,1,288.1016,11.4857Z"/><path class="cls-2" d="M122.2576,72.5468c.58.3756.9827.8134.5417,1.547C122.1414,73.7454,121.2077,73.4938,122.2576,72.5468Z"/><path class="cls-2" d="M182.5616,95.1165a2.4731,2.4731,0,0,1,.9933-1.1354,2.5578,2.5578,0,0,1,1.5167,1.208l-.8944,1.0189A2.8961,2.8961,0,0,1,182.5616,95.1165Z"/><path class="cls-2" d="M313.3022,105.1965q-.07.9181-.14,1.8358c-1.0133,2.32-3.15,2.941-5.32,3.4774a10.8381,10.8381,0,0,1-1.7893.168,5.3679,5.3679,0,0,1-5.4287-6.76c.3877-1.3914,1.63-1.9222,2.4739-2.8523a36.0727,36.0727,0,0,1,5.0533-.0234C310.63,101.3623,312.6574,102.4859,313.3022,105.1965Z"/><path class="cls-2" d="M260.3585,88.0663a7.3528,7.3528,0,0,1-1.0117.0708c-.8685-.0542-1.8338-.1364-1.7621-1.3169a2.11,2.11,0,0,1,2.298-1.5543c.99.25,1.324.98.9513,2.1771a2.3539,2.3539,0,0,1-.4529.612Z"/><path class="cls-2" d="M365.8334,52.9346a6.9814,6.9814,0,0,1-.9969-.2048c-1.7356-.62-2.0012-1.18-1.3511-2.8593.7137-1.8431,2.2152-2.9753,3.736-4.0856.97.3449,2.16-.9565,2.8613.0625.7471,1.0852-.1692,2.2795-.6023,3.33A7.4828,7.4828,0,0,1,365.8334,52.9346Z"/><path class="cls-2" d="M283.1021,46.9791a4.0846,4.0846,0,0,1-1.0179,1.46,1.4472,1.4472,0,0,1-2.0705-.1613,1.3371,1.3371,0,0,1-.3687-1.8224,1.582,1.582,0,0,1,1.9526-.8026c.7222.1935,1.0829.798,1.5052,1.3314Z"/><path class="cls-2" d="M280.2749,52.4033c-.3628.3418-.6608.3661-.9114.08a.5469.5469,0,0,1,.0953-.8359.523.523,0,0,1,.6581.0124C280.4772,51.9238,280.3317,52.1949,280.2749,52.4033Z"/><path class="cls-2" d="M313.0119,36.5026c-.2407.9638-1.2481.9956-1.8489,1.5215a26.4964,26.4964,0,0,1-2.9693.6838c-1.7021.2009-3.0557-.6938-3.1051-1.9131a2.878,2.878,0,0,1,3.0937-2.7432C310.07,34.2425,311.928,34.6542,313.0119,36.5026Z"/><path class="cls-2" d="M358.8446,35.5493a.58.58,0,0,0-.1188-.7077c.6916-3.4611,1.486-3.8938,5.726-3.1189a3.8792,3.8792,0,0,1,1.5394,1.9C364.9675,37.1212,361.5734,38.0364,358.8446,35.5493Z"/><path class="cls-2" d="M262.1488,114.142q.0413.3405.0825.6811-.2406.3184-.4811.6371c-.4973-.1962-1.2671-.21-.9981-1.0434C261.01,113.6176,261.6117,113.8865,262.1488,114.142Z"/><path class="cls-2" d="M334.1679,43.9514a4.3524,4.3524,0,0,1-.5429.8472c-.3956.3879-.7778.1382-1.094-.1656a.7173.7173,0,0,1-.1616-.92c.2272-.4.5667-.6621,1.0305-.4019a5.0564,5.0564,0,0,1,.7694.6534Z"/><path class="cls-2" d="M304.0927,19.91l.5012-.6334a1.347,1.347,0,0,1,.9968.8181C304.971,21.0072,304.5125,20.6157,304.0927,19.91Z"/><path class="cls-2" d="M252.322,100.7915a.6036.6036,0,0,0-.6968.0457c-.1424-.365-.4737-.7731-.0489-1.1015.5356-.414.8885.0047,1.2021.4059Z"/><path class="cls-2" d="M302.1864,53.566a1.29,1.29,0,0,1-1.5.5269c.0306-.48-.1323-1.0611.5739-1.21C301.8083,52.7677,301.952,53.2367,302.1864,53.566Z"/><path class="cls-2" d="M344.78,54.848a.5464.5464,0,0,1-.8131-.0761c-.0391-.0473-.0066-.1536-.0072-.2327l.8184.3025Z"/><g class="cls-3"><polygon class="cls-4" points="88.081 88.468 88.295 88.255 88.295 87.684 88.223 87.613 87.938 87.969 88.081 88.468"/><path class="cls-4" d="M128.7512,76.5651q-1.9248-3.92-4.705-3.9209-10.0518-1.0693-15.8262,1.4971v-.4991a3.3152,3.3152,0,0,1,.6416-1.4257v-.2139a15.99,15.99,0,0,0-3.6358-.7129h-1.7822a9.6382,9.6382,0,0,0-5.9883,2.21q.07,1.2831.2139,1.2832,0,3.9932.7129,3.9922v.1425c-.3809.1426-.57.2617-.57.3565v.1426l.1426.1425a9.2362,9.2362,0,0,1,2.8515-.7841h.4278q.9257,0,.9267,1.7822l.4277,19.5332v.1426l-.2138.0712q-1.9248,0-1.9248.57a5.2284,5.2284,0,0,0-2.15.71,3.3129,3.3129,0,0,1-1.0226-.4981l.1426-.7842L97.0632,98.52l-1.3545-2.9229a1.3692,1.3692,0,0,0-.1069-.4277c-.0713-.19-.1313-.3565-.1782-.499h.0713v-.7129a.6382.6382,0,0,0-.2852.0713q-2.496-8.4112-4.0635-15.6836l-2.2812-8.127L85.4431,60.0241q0-.9976-4.206-1.5684a15.2222,15.2222,0,0,0-3.7784,1.4971q-.8554,1.3549-1.0693,1.3545A29.227,29.227,0,0,1,74.18,66.44L70.9,76.0641l.0712.499A2.154,2.154,0,0,0,70.116,78.06l.2138.2139q0,.3575-.7841.9267l.2138.7129v.1426a4.44,4.44,0,0,0-1.2832,2.1387l-1.3545,3.3506-3.707,10.2656a11.9942,11.9942,0,0,1-1.1406,3.4219q.2139,0,.2138.4277v.2851a3.8679,3.8679,0,0,1-.8554,1.711h-.0713l-.0713-.0713.2852-.8555-.2852-.2851q-.7134,0-.7129.6416v1.0693l-.0713.2139q-1.2833.6415-1.2832,1.0693a3.89,3.89,0,0,1,.57,1.2832v.0713l-.2851.9268q0,.356,1.7822.4277,10.8354,0,10.8359-.7842,1.8531-1.4253,1.8536-1.9248v-.0713a5.5437,5.5437,0,0,0-4.2774-1.9961H68.4763a1.0571,1.0571,0,0,1-.7842-.2851,40.8159,40.8159,0,0,1,1.9249-5.7032h1.5683q9.9083-.9256,17.3233-1.497H88.58q2.9224,3.9932,2.9229,7.2v.2851l-.0713.1426q-2.6382,0-2.6377.8555l.7129,1.497v.2852l-.57.57a6.5017,6.5017,0,0,0,3.707,1.7822l4.42-.4277h.7129l.3419.1052a1.4448,1.4448,0,0,0,1.12.3958q0,.356,8.1982.6416l1.4258-.4277h.2851l3.3506-.3565.4278-.57.1425-3.9922-.2851-.9268v-.0712q0-.356-1.1406-.4278h-1.711q-.8554,0-.8555-.6416.1422-3.0644-.3564-15.2558a24.4652,24.4652,0,0,1,3.5645-4.42,19.503,19.503,0,0,1,6.5585-1.4257q2.8506,0,3.0655.3564,1.6392,1.7828,1.64,2.78,0,1.3549,2.6377,1.7822h.7129q3.2784,0,3.7783-.8555l-.9267-5.2754Q129.1076,76.5662,128.7512,76.5651Zm-28.4443-2.9229.2851.3565v.499l-.0712.1426a1.7,1.7,0,0,1-1.212-.57Q99.3088,73.7858,100.3069,73.6422Zm.3564,3.3506H100.45V76.85q.1421-.356.7842-.3564h.1425l.1426.2139Q101.4471,76.9933,100.6633,76.9928Zm-36.75,24.5928h-.0713l-.2138-.2139v-.2138l.2851-.0713.1426.2851Zm0-4.4912v-.2139l.499-.4277.1426.1426A.5584.5584,0,0,1,63.9138,97.0944Zm3.4932-.57-.2139.2138h-.1426l-.0712-.3564.0712-.4277h.1426l.2139.0713Zm14.8994-36.999h.3564a.5558.5558,0,0,1,.57.3564v.0713l-.1426.1426h-.57l-.2139-.2139ZM80.738,61.9489h.0713l.2139.1426v.2138h-.1426l-.1426-.2138Zm.2852,2.6377h.2139v.2851c0,.3809-.2139.57-.6416.57h-.0713A.9252.9252,0,0,1,81.0232,64.5866ZM72.1121,78.3454l.0713-.4278.2138,1.4258v.1426q0,.2856-.2138-.9268h-.0713Zm-.4991,1.7822h.0713v.2139H71.613Zm6.5586,11.834h-.2138v-.2139h.2138Zm6.4161-1.4971q-.0718.2856-.7129.2852h-.3565l-.1426-.1426.1426-.2852h1.0694Zm4.42-1.5684-.2139.2852H85.8709a98.6369,98.6369,0,0,0-14.6856,1.4971l-.2139-.1426v-.3565a41.2573,41.2573,0,0,1,2.5664-8.3408q2.209-3.5639,7.2-13.5449.07-.7837.0713-1.4971a2.7546,2.7546,0,0,1,.8555,1.2119,33.903,33.903,0,0,1,1.5684,4.7051l4.4912,13.5449q.9258,0,1.2832,2.5665Zm3.3506,17.3233H92.073v-.1426a.6122.6122,0,0,1,.6416-.3564l.1426.2138C92.8093,106.1237,92.6433,106.2194,92.3582,106.2194Zm2.3525-9.7666-2.0674.1426V96.31h2.0674Zm1.4971,4.6338h-.0713l-.2139-.2139v-.499h.0713l.2139.2139Zm6.1665-28.1573v-.2851h.2138l.8555.6416v.1426h-.6416Zm2.0674,30.9395v.2139h-3.3191l-.0168-.2852h.912Zm-5.8457.0713.0474.0474c-.0221.0017-.05.0017-.0727.0031Zm5.7744,1.5683h-2.1387a9.16,9.16,0,0,1-1.6085-.1016,2.4789,2.4789,0,0,0,.3059-.4562l.162-.0125q3.7778.1435,3.7783.4991Zm2.78-32.65.3565-.1426.2139.1426-.2139.2851h-.3565Zm0,24.3808v-.57l.2852-.2139h.1426l.1426.1426v.4278l-.2852.2138Zm.2852.7842v.2852h-.1426v-.2852Zm-.4277-23.8105.2851-.2139h.2139v.2139l-.3565.2851-.1425-.1426Zm-.7129,10.1943q-.3575,6.63-.57,6.63h-.0713l-.1426-2.8516q.1421-2.6367.2139-2.9228a3.3114,3.3114,0,0,0-.3565-1.4971v-.3565a1.1782,1.1782,0,0,1,.57-1.0693h.1426q.2842,0,.3565.6416Q106.4378,84.4079,106.2952,84.4069Zm-.2139-2.5664H106.01a.9716.9716,0,0,1-.4277-.7129l.3564-1.4971h.2852l.2139,1.2119Q106.2941,81.8414,106.0813,81.8405Zm1.7109,22.67h-1.0693l-.2139-.2139q0-.2137,1.212-.3564.3559.1435.3564.2851Zm1.4971-26.9473-.2139.2139h-.2138l-.2852-.2139v-.2138l.2852-.0713.4277.0713Zm5.8457-3.7783q-1.0693,2.0683-1.7109,2.0674V75.71a1.9731,1.9731,0,0,1,1.64-2.2812h.0713ZM117.06,75.567h-.57l-.3564-1.4257q0-.2139.499-.2852h.2139l.2138.2139Zm1.64-1.7109h-.7129l-.1426-.2139v-.0713L118.7,73.5h.4277l.1426.0712Q119.198,73.8567,118.7,73.8561Zm1.9248-.2852h-.499v-.1425c0-.0948.1894-.1895.57-.2852l.2138.2139Zm1.7822.2139-.1426.1426h-.3564v-.0713l.2851-.2139h.2139Zm1.9248,2.4951q-.999,1.6407-1.3545,1.711H122.62q.142-.4278.2138-.4278,0-.9258,1.212-1.497c.1894,0,.2851.0478.2851.1425Zm.7129,3.5645-.2852.2139h-.1425v-.1426c0-.0469.1181-.1426.3564-.2852h.0713Zm.2139-6.2022-.1426.2139H124.83l-.1425-.2139v-.0713l.1425-.1425h.2852l.1426.1425Zm2.78,3.0655h-.2138a1.5608,1.5608,0,0,1-.9981-.57v-.1426h.2139a1.567,1.567,0,0,1,.998.57Z"/><path class="cls-4" d="M162.5066,76.5631q-1.9248-3.92-4.7051-3.9209-10.0518-1.0694-15.8262,1.4971V73.64a3.3155,3.3155,0,0,1,.6417-1.4258v-.2139a15.99,15.99,0,0,0-3.6358-.7129H137.199a9.6388,9.6388,0,0,0-5.9883,2.21q.07,1.2833.2139,1.2832,0,3.9931.7129,3.9922v.1426c-.3809.1426-.57.2617-.57.3564v.1426l.1426.1426a9.2354,9.2354,0,0,1,2.8516-.7842h.4277q.9258,0,.9268,1.7822l.4277,19.5332v.1426l-.2139.0713q-1.9248,0-1.9248.57-2.78.4278-2.78,1.7822a23.7125,23.7125,0,0,0,.1425,2.6377q0,1.2833,1.4258,1.2832,0,.356,8.1983.6416l1.4258-.4277h.2851l3.3506-.3564.4277-.57.1426-3.9921-.2852-.9268v-.0713q0-.3559-1.1406-.4277h-1.7109q-.8554,0-.8555-.6416.142-3.0645-.3564-15.2559a24.4717,24.4717,0,0,1,3.5644-4.42,19.504,19.504,0,0,1,6.5586-1.4258q2.8506,0,3.0654.3565,1.6392,1.7826,1.64,2.78,0,1.355,2.6377,1.7823h.7129q3.2783,0,3.7783-.8555l-.9268-5.2754Q162.863,76.5641,162.5066,76.5631ZM134.0623,73.64l.2851.3564v.4991l-.0713.1425a1.7,1.7,0,0,1-1.2119-.57Q133.0642,73.7839,134.0623,73.64Zm.3564,3.3506h-.2139v-.1426q.1422-.3559.7842-.3565h.1426l.1426.2139Q135.2024,76.9913,134.4187,76.9909Zm-1.7822,27.7314h-.2852l-.1426-.2139v-.2851l.1426-.2852.2852.2852ZM136.13,72.9274v-.2852h.2139l.8555.6416v.1426h-.6416Zm-1.7822,30.8682h1.4258l2.4238.0712v.2139h-3.9209l-.0713-.1426Zm3.7783,1.7109h-2.1386q-2.0683,0-2.0674-.3564v-.1426l.9267-.0713q3.7779.1435,3.7784.499Zm2.78-32.65.3565-.1426.2138.1426-.2138.2852h-.3565Zm0,24.3809v-.57l.2852-.2139h.1425l.1426.1426v.4277l-.2851.2139Zm.2852.7841v.2852h-.1426v-.2852Zm-.4278-23.8105.2852-.2139h.2139v.2139l-.3565.2852-.1426-.1426Zm-.7129,10.1943q-.3573,6.63-.57,6.63h-.0713l-.1425-2.8515q.142-2.6369.2138-2.9229a3.3113,3.3113,0,0,0-.3564-1.4971v-.3564a1.1779,1.1779,0,0,1,.57-1.0693h.1426q.2841,0,.3564.6416Q140.1931,84.4059,140.0505,84.4049Zm-.2138-2.5664h-.0713a.9713.9713,0,0,1-.4277-.7129l.3564-1.497h.2852l.2138,1.2119Q140.05,81.84,139.8367,81.8385Zm1.7109,22.67h-1.0693l-.2139-.2138q0-.2139,1.2119-.3565c.2373.0957.3565.1905.3565.2852Zm1.4971-26.9472-.2139.2139h-.2138l-.2852-.2139v-.2139l.2852-.0713.4277.0713Zm5.8457-3.7783q-1.0693,2.0683-1.7109,2.0673v-.1425a1.9732,1.9732,0,0,1,1.64-2.2813h.0713Zm1.9248,1.7822h-.57l-.3565-1.4258q0-.2139.4991-.2851h.2138l.2139.2138Zm1.64-1.7109h-.7128l-.1426-.2139V73.569l.8554-.0713h.4278l.1426.0713Q152.9534,73.8546,152.4548,73.8542Zm1.9248-.2852h-.499v-.1426c0-.0947.19-.1894.57-.2851l.2139.2138Zm1.7823.2139-.1426.1425h-.3565v-.0712l.2852-.2139h.2139Zm1.9248,2.4951q-.999,1.6406-1.3545,1.7109h-.3565q.1422-.4276.2139-.4277,0-.9258,1.2119-1.4971c.19,0,.2852.0479.2852.1426Zm.7129,3.5644-.2852.2139h-.1426v-.1426c0-.0469.1182-.1426.3565-.2851H158.8Zm.2138-6.2021-.1425.2139h-.2852l-.1426-.2139V73.569l.1426-.1426h.2852l.1425.1426Zm2.78,3.0654H161.58a1.56,1.56,0,0,1-.998-.57v-.1426h.2139a1.5677,1.5677,0,0,1,.998.57Z"/><path class="cls-4" d="M199.6482,100.0885h-.2852q-.4276,0-.4277-4.6338V93.3874a52.1764,52.1764,0,0,1,.9981-8.626V84.69l-.1426-.1426.7842-8.84a2.2991,2.2991,0,0,0-.3565-1.2119q-.1436,0-.2851,1.0693H199.72l-.7129-1.64c0-.1894.2607-.2851.7842-.2851v-.2852a5.6163,5.6163,0,0,0-4.0635-1.2119h-1.5684l-1.64-.8555q-.5.0718-.499.8555a2.055,2.055,0,0,1-.7842,1.7822v.0713l.1426.7129v1.2832l-1.2832,13.5449v.6416h-.0713a5.0368,5.0368,0,0,1-.6416,1.9249l.1426.3564v.4277h-.3565a14.7411,14.7411,0,0,1-2.2812,2.709q-2.2105,3.2081-3.7071,3.208h-.2851q-4.705-.356-4.7051-.7842l-.499-1.1406a2.5964,2.5964,0,0,1-1.711-2.709q-.2856-14.3994.3565-18.9629l-.1426-.7841a4.8412,4.8412,0,0,1-.8555-2.2813l-4.8476-1.64q-5.5607.2856-5.5606,1.0693-.6415,0-.6416,1.9248a8.475,8.475,0,0,0,.4278,3.5645,33.0909,33.0909,0,0,1,4.8476.9267v.2139l-.7842,8.3408q0,8.6265,1.8536,11.2637.9975,3.3516,5.4892,7.77a14.48,14.48,0,0,1,3.4219,1.2832,17.7627,17.7627,0,0,0,2.8515-1.1406q4.7754-1.5675,4.99-2.0674a19.2143,19.2143,0,0,1,4.206-1.9248h.2139l-.1426.6416a1.0784,1.0784,0,0,0,.4278.8554q.6415,2.9239,1.2832,2.9229l7.913.1426,2.1387-.1426.7842.6416q.57,0,.8555-6.416a5.48,5.48,0,0,0-1.2832-.8555A23.873,23.873,0,0,1,199.6482,100.0885ZM170.7048,72.0719l.3565-.1426h.3564q.8554.1437.8555.2852,2.1387.2856,2.1387.7842v.1426q-.3575.5712-2.0674.57h-.4277c-.0957,0-.1426-.3086-.1426-.9268a4.9431,4.9431,0,0,1-1.0694-.6416Zm3.3506,3.85v.7842a.8623.8623,0,0,1-.4277.8555l-.2139-.1426V76.0641q0-.6415.2852-.7129h.1426A.6426.6426,0,0,1,174.0554,75.9215Zm-5.0615-4.42.2852-.1426.2138.1426v.1426h-.499Zm-3.707,2.4238h.9267v.2139l-.57.0713H165.43l-.1426-.0713ZM166,76.2067h-.57l-.1426-.1426.2851-.2851h.3565l.2851.2851Zm.499-1.1406-.0713.1425q-.7134,0-.7842-.4277v-.1426h.57l.2852.2852Zm.998.3564q0,.2139-.6416.3565v-.0713l-.0713-.0713v-.2139l.3565-.1426h.3564Zm.57.0713c.0469-.1895.3086-.2852.7842-.2852h.57a3.596,3.596,0,0,1,1.9248.9981c0,.333-.0957.499-.2851.499h-.7129Q168.0662,75.9221,168.0671,75.4938ZM171.56,87.2565v.2852l-.2139.2138-.2851-.1426V87.47l.2851-.2852Zm-1.2832-7.9844q.57-1.497.9268-1.497l.1425.2138V79.486l-1.0693.3564Zm3.85,21.6719a1.9536,1.9536,0,0,1-.7842-.3564q-2.9942-5.9166-2.9941-8.6973v-.2852l.2139-.2138h.0713q.498.1435,1.4257,3.4218l2.0674,5.7745Zm-.2139-9.3389a1.5539,1.5539,0,0,1-.9267-1.4258V89.68a.7378.7378,0,0,1,.4277-.7129h.2852q.4276,0,.4277,2.6377Zm.9981,3.2793a.642.642,0,0,1-.57-.4277v-.0713q.57,0,.57.4277Zm2.5664,5.1328h.2139a21.79,21.79,0,0,0,5.1328.8555v.0713q0,.2856-2.8516,1.4258-2.496-1.4971-2.4951-2.2813Zm-1.1406-1.9961h.0713l.1425.2139v.2139h-.0712l-.1426-.2139Zm-.6416,1.7823v-.2852h.2138l.2852.2852v.2851C175.9089,100.0885,175.742,99.9938,175.6951,99.8034Zm9.0537,4.0634-.0713.0713q-3.5655,1.7827-4.7764,1.7823-3.9932-.7837-3.9922-1.4258v-.0713l.2852-.2852h.1426l2.8515.2852h.57a17.3351,17.3351,0,0,0,4.4912-.57h.499Zm.9267-2.9941a6.1557,6.1557,0,0,1-3.707,1.9248h-.8555v-.1426a24.0966,24.0966,0,0,1,4.2061-2.0673h.3564Zm3.2793-6.4873a10.6985,10.6985,0,0,1-1.7109,2.6377h-.0713l-.0713-.1426a21.3324,21.3324,0,0,1,1.64-2.6377h.2138Zm1.9961,1.3545-.2851.2139h-.0713l-.3565-.2139a1.7361,1.7361,0,0,1,.4278-.8555l.2851.3565Zm.9268,3.208-.499.4277h-.1426v-.0713a.5671.5671,0,0,1,.6416-.6416Zm.7129-26.02h.1426q1.639.1435,1.64.499v.0713l-.2139.1426h-.4277Q192.59,73.64,192.5906,72.9274Zm1.1406,2.9228H193.66q-.5,0-.499-.2851v-.1426l.2139-.2139h.2138q.6417,0,.7129.2139v.1426Q194.23,75.8507,193.7312,75.85Zm.4277,12.9034q-.0717,1.2831-.4277,1.4257l-.3564-.3564a1.4241,1.4241,0,0,1,.57-1.2119h.1426Zm-1.1406,2.709v-.6417l.2139-.2138h.4277l.2139.2138v.2852a1.3991,1.3991,0,0,1-.6416.6416Zm.57,4.5625v.2138l-.2138.2139h-.1426v-.499h.1426Zm.2852,9.1962H193.66q-.5,0-.499-4.99v-.8555l.2139-.2138.3564.4277q.07,4.207.6416,5.2041C194.3728,105.0319,194.2058,105.1745,193.8738,105.2213Zm.499-21.8857V83.05q.3559-2.0668.57-2.0673c.0947,0,.166.2382.2139.7128q0,1.6407-.7129,1.64Zm.7842,10.4082-.2139.2139-.2851-.2139v-.0713l.2851-.2851h.1426Zm.3564,2.0674a8.04,8.04,0,0,1-.2851,2.0674h-.2139a15.4587,15.4587,0,0,1-.3564-2.9229V94.528h.1425q.7121,0,.7129.7842ZM197.0105,85.26h.2139v.6416h-.0713c-.0957,0-.19-.1182-.2852-.3564Zm.9268,18.82-.2139.1426h-.7129q-.7134,0-.8555-.3565v-.2138l.2139-.1426h.6416q.9258.0718.9268.4277Zm.2138-4.9189-.2851.2138h-.7129v-.2138l.7129-1.0694c.1894.0479.2851.2852.2851.7129Zm2.4951,2.6377h-.2851l-.4277-.0713v-.2852l2.21-.2851h.0713V101.3Q202.2146,101.7282,200.6462,101.8Zm1.711.8554-.2139.1426h-.2851V102.37h.2851c.1426,0,.2139.0478.2139.1426Z"/><path class="cls-4" d="M205.02,61.95a6.2318,6.2318,0,0,0,2.0262,3.5817q1.3918,1.0207,5.72-.1769a3.8836,3.8836,0,0,0,2.5014-1.6534,8.9993,8.9993,0,0,0,.5613-3.8536L214.74,57.7818a4.35,4.35,0,0,0-4.4632-1.4282l-2.2411.99q-2.2.6084-3.3667,4.4076l.038.1374C204.7326,61.9806,204.8364,62.0005,205.02,61.95Zm8.612-2.8258.0687-.019.095.3435-.13.3318-.0687.0191-.076-.2749Zm-.2617,1.9955.1375-.0381.057.2061a.8724.8724,0,0,1-.6228.69l-.2749.076-.057-.2061A1.2244,1.2244,0,0,1,213.37,61.1194Zm-1.93,2.3828,1.0307-.285.2631.1491-.1681.1944-1.2368.3421-.038-.1374Zm-1.2441-3.4281.1067.1184q-.0539.6076-.81.8158l-.1374.038-.4313.0453-.0687.019a.6961.6961,0,0,1,.516-.8084Zm-1.2572-1.8713.3816.0425q.0951.3444-2.1651,1.2645l-.019-.0687Q207.0419,59.0981,208.9393,58.2028Z"/><rect class="cls-4" x="318.6762" y="75.672" width="0.3564" height="0.3564"/><path class="cls-4" d="M385.2515,87.7668a11.767,11.767,0,0,0-1.916-1.8842l-.0573-.1306c.2611-.1145.3729-.2147.3345-.3024l-.1146-.2611-.3757-.1466q-5.619-2.5168-7.9864-2.4138-1.9587.859-2.9757.1374-3.3386.3747-3.5678-.148a19.3442,19.3442,0,0,1-7.1219,1.3328q-4.7521-.7183-6.3268-4.3092l-.0286-.0652a4.9934,4.9934,0,0,1-.4477-3.1509q.0439-1.4973,3.308-2.93l1.8853-.6711q2.742-1.2026,10.3839-.8172a3.84,3.84,0,0,1,3.2871,1.2829q.2865.6534,4.0855-.624.3261-.1429.6564-.9884.4519-.742-.5783-3.0936l-.83-1.8934-3.2789-5.8793q-.2-.456-2.159.4019a3.9748,3.9748,0,0,0-1.9621,1.561q-1.1753.5154-.803,1.3641l.2.457.0573.1306a3.308,3.308,0,0,1,.2793,2.0571,23.6212,23.6212,0,0,1-5.1473.1555q-8.8891,1.563-10.5866,2.3074l-.8648.6906q-.1219,1.1442-2.3723,3.9983-1.9025,4.182-1.5591,4.965a5.5324,5.5324,0,0,0-.3168,1.7632,24.6424,24.6424,0,0,0-2.0873-1.9967,41.4433,41.4433,0,0,0-7.5566-4.7764h-.6416l-1.9961-.57a22.3686,22.3686,0,0,0-7.2,1.64q-5.1328,2.1387-8.4834,9.3389-1.5688,1.2832-1.5684,4.5625c-.3434.9285-.6371,1.7468-.8886,2.4711.0214-.4351.0332-.9446.0332-1.5443q0-2.78,1.0693-11.834v-.499q-.7851-.1422-.7842-.4278l.0713-.998a9.3166,9.3166,0,0,0,.7129-3.2793V71.6085q0-.4276.57-.7841c0-.4746.0469-.7129.1426-.7129q.2841-10.55.6416-13.9727,0-.2841-.7842-1.2119a5.9447,5.9447,0,0,0-.2851-2.0674q0-.2841-2.9229-.8554l-3.1367.0712-.4277.0713v.1426l.2851.2852V52.86q-1.6405,0-1.64.7129a.6.6,0,0,0,.3564.499c.332,0,.5225.0957.57.2852v.2852a2.6238,2.6238,0,0,0-1.1406.2138q.1421,4.919.7842,4.919a7.6746,7.6746,0,0,1,3.1367,1.497q-.2139,0-.57.57-.6417,12.7619-1.2832,15.8975h-.2139l-.499-.2851q-4.7769-3.92-12.333-3.9209h-.6416q-4.9189,0-7.2,2.0673a23.6147,23.6147,0,0,0-3.2793,4.5625A23,23,0,0,0,285.6693,91.57q.07.4995.2139.499l.4277-.4277q0-.57.2139-.57l.1426.2138v1.3545q0,.5713-.3565.7129h-.1426l-.0712-.6416h-.4278q-.0543.6476-.149,2.3992a4.3967,4.3967,0,0,1-.2074-1.2586l.2851-7.0576-.0713-1.7822q0-3.92-1.1406-5.0615-.9272-4.8473-2.4951-6.4873-.7851-2.2091-4.9189-6.1309a23.7406,23.7406,0,0,0-4.7764-.998l-8.84.2138a8.6792,8.6792,0,0,0-2.4238,1.1406q-4.2773,2.78-5.418,6.06c-.11,1.45-.204,2.5808-.2834,3.4213-.0772-.1295-.1459-.2638-.2264-.3915a9.4243,9.4243,0,0,0-3.9922-3.3506,8.7379,8.7379,0,0,0-5.2041-2.1387q-3.6359,0-9.41,2.4952-2.4243.7133-2.8515,1.497-.8556,0-1.1407-1.9961V72.0719a6.8423,6.8423,0,0,1,.4278-1.9961l-.2139-.2138h-5.8457a19.9119,19.9119,0,0,1-3.4219-.2852l-.1426.1426-1.1406,3.208.1426,2.6377a2.2422,2.2422,0,0,1-.3565,1.2119v.2852q.8556.8554,1.3545.8554L226.56,77.49h.3565q.57,0,.57,6.7012l-.2852,6.5586v3.7537a7.7543,7.7543,0,0,0-3.58.4676l-.2061.057q-.5506.1524-.6944-.1038a9.1746,9.1746,0,0,1-.1243-1.5188q-1.6453-7.015-3.9179-18.4433l-.3041-1.0994a6.61,6.61,0,0,0-1.3405-2.44l-.3231-1.1681-.2018-.4619q-.1518-.5491-9.4965,2.035l-.7792.6593a2.085,2.085,0,0,1-1.5072-.1009l-.2061.057-.0994.1755a4.0438,4.0438,0,0,1-.1476,2.4077q.5453.3674.6212.6418l-.1154.9195q.1332.4815.4268.4737.2664.9628,4.3886-.1784-.1677.1955-.1491.2631.0762.2754,2-.2573l.1375-.0379,4.1737,18.2985q.8553,3.092.1681,3.282-5.1531,1.4253-4.9631,2.1124l.6315,1.7485.2091.7558.2207.5306q.1524.5507,6.1751-.6725l.038.1375a40.3318,40.3318,0,0,1-4.6459,1.6548l-.1374.038a.8824.8824,0,0,1-.6944-.1038l-.2061.057a1.63,1.63,0,0,0-.4781.9459,3.2528,3.2528,0,0,1,.83,1.3976q.342,1.2368,8.0375-.8918L225.9,104.77c.0061.03.0122.0667.0182.095a1.8724,1.8724,0,0,0,1.7822,1.2119l8.27-.0713a10.4991,10.4991,0,0,0,.7129-3.6357v-.1426a2.26,2.26,0,0,0-.4991-1.64q-2.71-.4278-2.7089-.7129V99.59l1.1406-.0713,1.5683.0713v-.2852q0-.57-2.8515-1.0693-.3575,0-.499-7.2,0-3.9917.998-4.7764,3.2081-3.4921,3.4932-3.4931a9.9536,9.9536,0,0,1,7.414-3.4932,14.4874,14.4874,0,0,1,2.709.9981q3.0645,3.5653,3.0654,5.4892,0,1.5688-.2138,1.5684l-.4278,6.3447a59.7548,59.7548,0,0,0-1.497,6.3447,4.342,4.342,0,0,0-1.2119,3.4219l.0713,2.5664q0,2.1387,2.4951,2.4951a30.2224,30.2224,0,0,1,7.2-.9267h1.497a5.8583,5.8583,0,0,0,3.0655-.8555c.2752,0,.503-.4949.6861-1.4576a14.2379,14.2379,0,0,0,3.1743.9229h.3565a21.0409,21.0409,0,0,0,6.2021-.8554q.07-.0718,8.4834-3.3506,4.6334,4.0635,5.7744,4.206h.0713q.4982,0,2.3526-1.8535c.3887-.2887.7276-.5576,1.0255-.81a16.8316,16.8316,0,0,0,6.9588,3.7329q4.4913-.2857,10.4082-3.5645a5.9993,5.9993,0,0,1,2.9229-1.5683l-.1426,2.2812q.356,3.6357.6416,3.6358l2.709.0712,1.9248-.4277h.7842l.3564.57h.4278q3.4922,0,4.0634-1.497l-.3564-.57v-.6416l.3564-.3564q0-1.2832-3.5644-2.0674v-1.64c.3019-1.8361.5215-3.3021.6636-4.4195.2184.487.4413.9785.6909,1.4966q0,3.066,6.4873,8.84,5.1329,2.0668,6.3447,2.0673h1.3545a50.1827,50.1827,0,0,0,5.6318-.2851q2.7086,0,5.5606-2.709,6.3442-8.7686,6.63-10.123a39.0622,39.0622,0,0,1,.9267-4.7051l-.2138-2.5664.1425-.9268-.6416-1.4258c-.0777-.5431-.1511-.9735-.2208-1.3029a14.68,14.68,0,0,0,3.054,2.4081l3.491,1.0378,6.3969.3864a30.0944,30.0944,0,0,1,6.42-1.3363,5.0863,5.0863,0,0,1,4.3718.0289q4.59,1.4133,5.42,3.3057l.0859.1959a11.3126,11.3126,0,0,1-.13,5.7394q-.2673,2.7644-3.7272,4.2812l-2.2851,1.002a5.6615,5.6615,0,0,1-4.8289.1716,63.1479,63.1479,0,0,1-7.5284-1.3691l-3.2882-2.528q-2.0318-3.3893-2.4887-3.19l-3.978,2.2893q-.5231.23.4512,2.4488l1.1222,4.3341a26.81,26.81,0,0,0,2.9479,5.48q.3435.7835,4.743-.3674.5218-.2289.3037-2.8576l.2611-.1146a12.9446,12.9446,0,0,0,5.8138,1.1869q.4561-.2,4.3764.5718.2289.5218,5.73-.9561l2.2851-1.0021a10.1562,10.1562,0,0,0,5.0364-5.5559,9.9952,9.9952,0,0,0,2.0734-5.0349Q387.828,93.6434,385.2515,87.7668Zm-8.0681-16.6231.1145.2612-1.2771.6379a4.2073,4.2073,0,0,1-2.0365.5038l.2038-.2451.5224-.229A23.9435,23.9435,0,0,1,377.1834,71.1437Zm-3.4884-7.4221.3264-.1431.1718.3917-.3265.1431-.2531-.0447Zm-.977-1.5177.1145.2612a.9326.9326,0,0,1-.4971.9964q-.5232.23-1.7558-.6312l-.0573-.1306Q372.5454,61.8126,372.718,62.2039Zm-2.354,6.17.1306-.0573q2.1222-.3069,2.2655.0184l.0572.1307-.008.1591a5.5915,5.5915,0,0,1-2.5186-.0631Zm-3.0434,2.113q2.8818-.1728,3.0536.2178l.0286.0653a8.7976,8.7976,0,0,1-3.0615-.0586l-.0573-.1306Zm-.7489-2.24.0286.0654-.1958.0858q-.8116.2792-.898.0824l-.0286-.0652Q366.5149,68.1169,366.5717,68.2465Zm-145.9707,31.85.3435-.0951q.19.6876-.4283.8582l-.37-.2676A.5548.5548,0,0,1,220.601,100.0965ZM216.6845,76.845l.095.3435-.13.3319-.2062.057a.6989.6989,0,0,1-.5145-.5234l-.1141-.4122.2559-.1448A.8668.8668,0,0,1,216.6845,76.845Zm-1.9838-.4868q-.323-1.1676.57-1.4151l.4123-.1141.2631.1491.076.2749-.13.3318q-.7568.2094-.0716,2.6826l.114.4123-.0234.45-.0687.0191q-.2061.0568-.652-.4854l.1389-1.37Zm.51-5.91.2631.1491.057.2061-.1374.0381-.3318-.13Zm-8.7919,3.2454-.3436.0951L206,73.5133q-.0759-.2739,1.71-.7689l.2062-.0571.2135.2369Q208.2056,73.2,206.419,73.6931Zm4.4456.0278-2.2674.6271-.2061.0571-.7558.2091q-.9628.2663-1.0379-.0088l-.057-.2061,1.2367-.3421q3.9086-1.3759,4.0042-1.0336l.0189.0687Q211.8956,73.4367,210.8646,73.7209Zm2.4093-1.1841.6374-.1024.9619-.266,1.4619-.33.114.4122-.7719.9532-.1374.038q-.24-.5993-.5146-.5234l-.1374.0381c.038.1374.0109.2188-.08.2441l-.1374.038a1.9533,1.9533,0,0,0-1.3582-.364Zm1.1023,10.9379q-1.6755-6.8592-.6447-7.1443.2059-.057.5642.4356,1.7164,7.81,1.4415,7.8855l.038.1374a4.5493,4.5493,0,0,0,.6929,1.4356q.0384.1383-.2792.595l.4035.9239.114.4123a7.7672,7.7672,0,0,1,.0044,2.9574l.3538,1.0116q.1018.6376-.1038.6944-.1383.0382-.3391-.4239ZM217.9476,101.2l-.481.133q-3.729.9585-4.4309.56l-.0191-.0688.443-.27a44.4421,44.4421,0,0,1,5.0421-1.0248l.038.1374C218.5109,100.9218,218.3137,101.0989,217.9476,101.2Zm1.0979-9.4015-.0687.019a20.5649,20.5649,0,0,1-.4957-3.931l.3436-.095.2017.4619.1331.481Q219.3884,91.7049,219.0455,91.7987Zm.3932,3.2937-.133-.481q-.0912-.8623.0468-.9005l.2061-.057.1331.481q.19.6874-.1155.9194Zm.2544,1.187-.095-.3435.13-.3319.0687-.019.2632.1492.057.2061-.2179.2821Zm1.3362,6.4353-.981.1974-.0759-.2749.9619-.266.8742-.3158.8435-.1594.2748-.076.057.2061Zm10.3069-22.73c0-.1894.0713-.2851.2139-.2851h.1425q.57.1435.6416,2.78a8.334,8.334,0,0,1-.57,3.3506h-.0713q-.4995,0-.499-3.5644a1.03,1.03,0,0,0-.3564-.7129,1.58,1.58,0,0,0,.6416-1.1407Zm-1.3545-1.64a1.6535,1.6535,0,0,0,.2852-1.1407V75.9215l.1425-.4277h.3565q.2841,0,.499,1.1406a4.396,4.396,0,0,1,.7842,1.5684q0,.4276-.9981,1.2119a8.026,8.026,0,0,1-.4277,1.64.8357.8357,0,0,1-.3564-.7841V79.7l-.2852-.9981Zm-3.9951,20.6313.7675-.4343c.0685-.4627.1663-.736.2909-.82l.2748-.076c.1954-.0044.3384.1537.4269.4737l.0169.0608c.0012.0171.0081.0379.0081.0542v.0713l-.3564.499c-.5479.11-.9882.2156-1.3255.3182A1.0158,1.0158,0,0,1,225.9866,98.9767ZM228.2,78.2028c.0468-.4746.1425-.7129.2851-.7129h.2139l-.2139.9268h-.1426Zm-1.039,22.0764-.13.3318-.1374.038-.0381-.1374.13-.3318.1374-.038Zm-3.5948-28.35,5.8457-.9267v.1426h.1426v.1425l-.2852.4278q0,.6415-4.6338.6416-1.0693-.07-1.0693-.2852Zm1.0693,4.5625-.2851.2852h-.7129v-.1426q0-.1421.6416-.3564l.3564.1426Zm.0713-2.2812a2.0434,2.0434,0,0,1-1.2832.6416c-.2383-.0947-.3564-.2139-.3564-.3564v-.0713q0-.2139.499-.2852h1.1406Zm.499-.2852-.2138-.2138q0-.2843.9267-.2852l.3565.0713q0,.3575-.9268.4277Zm1.9961,1.2832h-.2138l-1.3545.0713v-.1425l.0713-.0713a19.7589,19.7589,0,0,0,2.8515-1.1407h.2139l.0713.2139-.0713,2.3525c0,.1905-.0713.2852-.2139.2852a1.3238,1.3238,0,0,1-.8555-.2852,1.0258,1.0258,0,0,1,.3565-.7128v-.2139Q227.9134,75.2091,227.2014,75.2086Zm-1.52,20.5241.4123-.1141c.5948-.1645.9187-.1548.9692.0278l.057.2062a2.8043,2.8043,0,0,1-1.6256.0058Zm9.1484,7.4925q0,.3575-3.5645.3565a9.185,9.185,0,0,1-1.2315-.0651l.7643-.2493.1681-.1945-.0877-.2264c.4223-.0316.9258-.0489,1.5274-.0489Q234.8285,102.7975,234.8294,103.2252Zm41.7862-34.8959h.1426a1.5626,1.5626,0,0,1,.9267.57v.1425h-.0712a1.56,1.56,0,0,1-.9981-.57Zm-5.2754-.57h.3565l.2138.3565-.0713.1426h-.4277l-.2139-.2852Zm-2.4951,2.709h.57l.4277.4278-.2138.2138h-.9268l-.2138-.3564Zm-3.4932-1.7822a6.0086,6.0086,0,0,1,2.21-.2852h.2852v.2852a5.506,5.506,0,0,1-1.7823.4277c-.4277,0-.666-.0713-.7129-.2138Zm-6.416,2.2812q1.2114-1.4251,1.9248-1.4257h.0713v.2138q-1.2833,1.3551-1.9248,1.3545h-.0713Zm-.7842,5.418.2139-.1426.1426.1426v.57c0,.2852-.0957.4522-.2852.4991h-.0713Zm-1.1406,3.3506q.4278-1.2114.7129-1.2119l.4277-.1426q2.423,0,2.5664-.3564A9.0671,9.0671,0,0,1,262.5,73.2482q0-.7837,3.7783-1.5684l2.9228.4278q4.2774,0,5.8457,2.6377a23.3006,23.3006,0,0,1,2.5665,6.416c0,.19-.1192.2851-.3565.2851H276.83a7.0648,7.0648,0,0,0-3.85-.7841h-.4278l-3.208.0712a15.4,15.4,0,0,0-7.3427,1.9961,5.1425,5.1425,0,0,0-2.2813,1.711,17.6489,17.6489,0,0,0-1.8148,2.5106,20.9478,20.9478,0,0,0-1.4487-7.3093C256.6278,79.675,256.8092,79.7068,257.0111,79.7355Zm4.7764,5.1328v.1426a.7433.7433,0,0,1-.7129.57h-.1426v-.3564l.7842-.3565Zm-1.1515,19.2069a1.4342,1.4342,0,0,1-.6307-.5292l.065-.0867a.6289.6289,0,0,1,.5657.4075Zm-.2743-4.1649h-.3564l-.1426-.1426v-.0713l.1426-.1425h.1425l.2139.2138Zm-6.213-9.5884q.498,0,.57.9268h-.3564l-.2139-.8555Zm-.1426,5.6319h.1426V96.31h-.1426Zm-.0713,3.6357q0-.7838.2139-.7842h.1426v.1426l-.2852.7842h-.0713Zm-.0713,1.2832h.2852l.2139.2852V101.3l-.2139.1426-.2852-.2851Zm-2.2812-5.3467h-.0713l-.0713-.0713q.07-1.497.3565-1.497v.8554Q251.7962,95.5265,251.5823,95.526Zm.2139.3565v1.2119l-.2139.8555H251.44a2.013,2.013,0,0,0-.4277-1.3545Q251.012,95.8835,251.7962,95.8825ZM251.44,81.1256v-.2138q.7119,0,1.2119,2.4238v.6416l-.1426.499A15.5547,15.5547,0,0,1,251.44,81.1256Zm-13.4023-7.1289h.1425v.1426c0,.0957-.2138.2139-.6416.3565v-.0713l-.0713-.0713C237.467,74.2106,237.6565,74.0924,238.0374,73.9967Zm-4.7764,2.1387a3.13,3.13,0,0,1,1.9961-1.1406h.0713l.0713.0713v.0713a3.09,3.09,0,0,1-2.1387,1.2832Zm.998,6.1309h-.2851l-.1426-.2139.1426-.1426h.1426l.1425.1426Zm1.711-.2139h-.3565l-.0713-.1426v-.1426l.4278-.57h.2138Zm1.0693-1.2119h-.2139v-.1426q.6417-1.5674,1.212-1.5684v.1426h.1425Q238.18,79.9138,237.0393,80.8405Zm1.4258-3.5645q-3.28,2.8521-5.1328,3.0655v-.2139q0-.9975,2.9941-1.9248a5.9091,5.9091,0,0,1,1.711-.9981h.4277Zm.6416,2.5664q.07-.9258,1.1406-.9267h.2139l.2139.1426Q240.6751,79.5578,239.1067,79.8424Zm-.2139-5.917-.1425-.2138V73.64a6.904,6.904,0,0,1,3.35-.9981h.1426Q242.2434,73.07,238.8928,73.9254Zm3.5645,2.0674V75.85q0-.356.9267-.4277h.4991v.1426q0,.2856-1.0694.4277Zm1.4258,1.4971h-.0713l-.1426-.1426q0-.142,1.2119-.2851l.57.1425Q245.4514,77.49,243.8831,77.49Zm1.4257-4.2061a3.8775,3.8775,0,0,0-1.7109-.8554v-.0713q.142-.356.7842-.3565a5.4341,5.4341,0,0,1,2.2812.9268l.7129-.1426h.2852q.7119,0,.7842.4278v.0712l-.0713.1426-2.2813.0713Zm2.9229,5.418-.2852.2139h-1.7822v-.2139q0-.2841,1.3545-.499h.3565l.3564.2139Zm.7842-1.64h-.0713l-.3565-.2139V76.777l.1426-.1426.4278.2139Zm-.0713-1.0694q-1.2833-.142-1.2832-.4277a.8382.8382,0,0,1,.4277-.7129q1.14.2139,1.1406.57A.6784.6784,0,0,1,248.9446,75.9928Zm1.4258-.8554h.3564c.4277,0,.6651.0957.7129.2851v.0713l-.3564.2852h-.3565a.5538.5538,0,0,1-.57-.3565Zm-.0713,2.4238v-.2139h.0713a2.907,2.907,0,0,1,1.4258,2.21v.2851l-.2852.2852c-.19,0-.2852-.1895-.2852-.57A11.1463,11.1463,0,0,1,250.2991,77.5612Zm-1.7822,25.8779h.2138l.2852.3565v.0712l-.0713.2139h-.2139l-.2138-.2139Zm2.5664,3.9922-.57.1426h-.3564q-1.9248,0-1.9248-.499v-.1426l.2852-.2852h.2851a3.1249,3.1249,0,0,1,2.2813.7129Zm-.0713-1.5684a.7436.7436,0,0,1-.7129-.57q0-.498,2.78-.57a2.138,2.138,0,0,1,1.7822.6416Q254.8616,105.7917,251.012,105.8629Zm4.2773-21.03q-.5712,0-.7129-3.7784h.0713q.4278,0,.7842,3.7784Zm.3565,14.6855V97.736l.0246-.2467a5.5972,5.5972,0,0,0,.5183,1.3431,5.3761,5.3761,0,0,1-.4717.6858Zm1.5683,1.0694v-.0032c.1079.2085.2114.4058.31.59l-.31-.0163Zm.7842,1.9248c0-.0665.0638-.1246.1791-.1761.088.1454.17.275.244.3855-.14.0017-.2727.0044-.4231.0044Zm1.2832,2.0673a.6109.6109,0,0,1-.6416-.3564v-.2139a.6862.6862,0,0,1,.534-.5343,12.3623,12.3623,0,0,0,1.2088.8731A2.0571,2.0571,0,0,1,259.2815,104.58Zm7.14,1.105a6.8309,6.8309,0,0,1-2.8516-.499c-.4875-.1483-.9175-.29-1.3058-.4263.0205-.1367.0392-.2931.0584-.4442a9.442,9.442,0,0,0,1.39.5141q2.7085.57,2.709.7841Zm2.709-3.208q0,.2139-.7842.3565a.5538.5538,0,0,1-.57-.3565l.2138-.2139h.9268l.2139.1426Zm7.4853-1.7109a6.1724,6.1724,0,0,1-2.6377.8554h-.2851v-.1425q.2138-.4981,2.6377-.7842h.2851Zm2.9941-4.8477q0,.4278-.57.7842-8.5547,4.2071-9.8379,4.2061a4.2176,4.2176,0,0,1-1.4257-.4278q-4.2071-1.5673-5.5606-3.4219v-.2138l.6416.0713v-.0713l-.7129-.9268q-.7134,0-1.2119-4.2773a3.503,3.503,0,0,1,1.2832-2.1387q1.9952-2.4228,7.4141-3.6357a32.5764,32.5764,0,0,1,7.2,1.497q1.5673.4995,1.5683,1.2832l.1426.0713a65.39,65.39,0,0,0,1.0693,6.8438Zm1.0694-2.78-.2852.2852h-.0713l-.2138-.2852V92.71l.0713-.0713h.2851l.2139.0713Zm0-2.5664-.2852.0713-.2138-.2851.2138-.2139h.0713l.2139.2139Zm3.4931-8.6259h.0713c.0948,0,.19.1191.2852.3564l-.0713.3565c-.0957,0-.19-.1895-.2852-.57ZM282.39,84.5832l.2139-.1426h.0713a2.1307,2.1307,0,0,1,.4277,1.4258H282.96q-.2856,0-.57-1.0694Zm-.2138,2.2812.2138.1426v.0713h-.2138Zm.499,1.7822-.2139.2139-.2139-.2139v-.2851h.4278Zm.7842,4.3487-.1426.1425q-.4278,0-.57-2.7089v-.0713h.2138a5.5643,5.5643,0,0,1,.4991,2.4951Zm1.2832,8.0556-.2852.2852h-.0713a1.1019,1.1019,0,0,1-.57-.6416l.2139-.2139h.3564l.3565.4278Zm26.5195-18.25c0,.333-.0957.5235-.2852.57h-.2138l-.3565-.3564v-.57l.2852-.2852h.1426A.6852.6852,0,0,1,311.2621,82.8009Zm-.1426-2.6377v.2139h-.0713q-2.0683-.57-2.0674-.8555h.7842A1.7571,1.7571,0,0,1,311.12,80.1632Zm-4.3486-3.208h.1426l.998-.0713q1.14.2857,1.1406.9981h-.0713a8.06,8.06,0,0,1-2.21-.7129Zm1.5683,2.2813-.1425.1426-.2852-.2852h.2852Zm-2.78,0-.1426.2138h-.4277l-.2139-.2138.1426-.2139h.0713A.6423.6423,0,0,1,305.559,79.2365Zm-3.7071-3.5645h.7129a4.1205,4.1205,0,0,1,2.3526.499v.2852h-3.1368l-.1425-.2852Q301.6381,75.7434,301.8519,75.672Zm.6416,3.3506.4991.0713v.1426l-1.5684.2138h-.1426l-.1426-.0712Q301.139,79.0949,302.4935,79.0226Zm-2.7089-.499h.499v.0713l-.2139.1426h-.2851l-.1426-.0713Zm-2.5665-2.8516.2139-.2851h.4277l.2852.2851v.2139l-.3564.2851h-.3565l-.2139-.1425Zm.9981,3.3506v.0713l-.2139.1426h-.7129l.1426-.2139Zm-5.6318-1.4258q.7836-1.4253,1.8535-1.4258h.3564c.4278,0,.6651.0958.7129.2852q0,.8555-2.4951,1.4971h-.2852l-.1425-.0713Zm-3.1368,5.917a7.866,7.866,0,0,1,1.4971-3.4931,10.6857,10.6857,0,0,1,2.3525-1.4258h.4278l-.2852.499q-.7134,0-2.8515,2.9941-.5,1.4972-.9268,1.64h-.2139Zm1.56,18.4269c.3036.1018.65.2264,1.0774.3934v.2139c-.5381-.0489-.9769-.1068-1.33-.1725A2.01,2.01,0,0,0,291.0079,101.9407Zm-1.56-13.7218h.2139v.4277q-.2139,1.4268-.7129,1.4258a.1891.1891,0,0,1-.2139-.2139Q289.0908,88.2195,289.4476,88.2189Zm-3.1367,7.2h.3565a6.1161,6.1161,0,0,1,1.497,3.4219V99.33c-.0721-.0691-.1392-.1313-.2138-.2037a14.5193,14.5193,0,0,1-2.06-3.0685C285.9741,95.6407,286.1119,95.4191,286.3109,95.4191Zm-.0713,6.8437-.2138.1426h-.2852l-.2851-.2851v-.1426l.1425-.2852h.2852l.3564.4278Zm.6416-1.5683h-.2138q-.3574,0-.6416-.9268V99.34h.2138q.356,0,.6416,1.1406Zm4.5625,2.2812.2139-.1425h.4277q4.0635.7132,4.0635,1.497v.0713l-.1426.1426H295.65Q291.4428,103.76,291.4437,102.9757Zm8.84,2.709a16.6945,16.6945,0,0,1-3.3506.499h-.9268l-.0713-.2138v-.2139q0-.2841,2.2813-.4277l2.0674.2138Zm1.0693-1.7109h-.4277l-.2139-.1426v-.1426q0-.2841,1.3545-.2851H303.42l.2139.1425Q303.6342,103.8318,301.3529,103.9738Zm3.6358-2.9942q-.5,1.0693-5.2041,1.3545h-.8555V102.12q.356-.4278,5.8457-1.3545h.2139Zm2.2812-.4277a2.423,2.423,0,0,1-1.1406.9268h-.0713v-.2852a2.1542,2.1542,0,0,1,.9267-.9267h.1426l.1426.1425Zm2.4951-4.4912q-1.4266,0-3.3506,2.9228a20.8629,20.8629,0,0,1-9.5527,2.3526,8.9187,8.9187,0,0,1-4.2773-1.0693q-2.71-4.7754-2.709-5.7745V93.423a16.6447,16.6447,0,0,1,.7842-4.42,15.8833,15.8833,0,0,1,3.4218-7.6992q0-.9258,5.7032-1.4971l.998.2139q7.77.0717,7.77.7841v.0713h-1.0693l-.0713.1426.4277.2852q2.0669.5712,2.0674.8554l-.2852.4278q0,.2856,1.64,1.7822.7838,0,.7842,2.9941v.7129a6.4371,6.4371,0,0,1-.57,2.6377Q310.5487,95.277,309.765,96.0607Zm2.21,7.2-.2852.2851h-.2138v-.1425l.3564-.2852h.1426Zm.3564-1.9248-.3564.3564h-.1426q0-.6415-.4277-.6416v-.4277a.4986.4986,0,0,1,.4277-.57h.2139a.8328.8328,0,0,0,.2851.7129Zm2.5664-23.4541-.0713.0713q-.2856,0-.2851-.7129h.2851l.0713.4277Zm2.2813-21.8145.1426-.2138h.4277l.499.0713v.2138h-1.0693Zm-3.5645,1.3545-.499-.1426v-.1425l.1426-.2139H313.9l.2139.2139Q314.0419,57.4225,313.6146,57.422Zm.4991-1.9961h-.8555v-.0713l.0713-.2138h.57l.2139.2138Zm.998,47.1221v-.9268l.0713-.57h.0713c.1894.0479.2851.31.2851.7842v.7129l-.1425.2139h-.1426Zm.7842,1.4258h-.3565l-.1425-.1426v-.2139h.3564l.1426.2139Zm-.6416-46.5518-.1426-.2138a.7368.7368,0,0,1,.7129-.4278h.8555l.2851.2139Q316.9652,57.3518,315.2543,57.422Zm3.4219,48.12q.8555.1435.8554.3565v.1426l-.499.1425h-1.4258c-.4277,0-.666-.0957-.7129-.2851Q316.8939,105.6144,318.6762,105.5421Zm-.4278-10.4082-.1426.0713c-.0571,0-.1044-.0856-.1441-.2379,0-.014.0016-.0339.0016-.0472v-.2852l.0324-.2268.0389-.0583h.0712l.1426.4277Zm31.2694-16.6063.0573.1306-.04.796-.1226-.102-.0859-.1959-.1351-.4856Zm-.9715,3.8456h.0713a.8192.8192,0,0,1,.4633.18l.7723,1.3546.244.8c-.1346.4362-.2483.66-.339.66h-.1426a27.0354,27.0354,0,0,1-1.2832-2.7089C348.3324,82.4689,348.4037,82.3732,348.5463,82.3732Zm-3.208-1.2119v.0713l-.1426.2138h-.2139q-1.7828-.9256-1.9961-1.7822v-.1426A9.2245,9.2245,0,0,1,345.3383,81.1613Zm-3.4219-4.7764h.1426q1.2114.4278,1.2119,1.2119a2.1155,2.1155,0,0,1-1.5684-.998Zm-.7842,3.85q.57,0,.57.6416v.1426l-.0713.1426a1.2014,1.2014,0,0,1-.998-.7129Q340.6332,80.3064,341.1322,80.2345Zm-3.2793-5.7031q1.4972.1435,1.4971.9268v.3564l-.1426.0713-.7129-.0713a1.4864,1.4864,0,0,1-1.5683-.998Q336.9262,74.6027,337.8529,74.5314Zm2.4951,3.5645v.0712l-.0713.1426a3.9925,3.9925,0,0,1-2.1386-1.0693l.1425-.0713A3.4345,3.4345,0,0,1,340.348,78.0959Zm-3.2793-.1426V77.882q-.1435-.1421.57-.57l.1426.0713Zm.1426.998v.1426L332.15,80.2345h-.9981l-.1425-.2138v-.0713q0-.7119,4.8476-1.2832Zm-1.3545-2.1387.57.2139q0,.2139-5.56.8555v-.3565a12.3126,12.3126,0,0,1,4.9189-.7129Zm-10.6221,1.9961.2139-.3564a12.4647,12.4647,0,0,1,8.7686-3.707l1.1406.2138V75.03q0,.4278-4.7764.9268l-.4277-.0713-.57.2139q-3.9214,2.9942-4.3487,2.9941Zm.7842,1.212q0-.7121,1.2119-1.0694v.2139A1.552,1.552,0,0,1,326.0189,80.0207Zm.2852,1.9961v.1425l-.1426.1426h-.1426v-.2851Zm-1.7822,1.7109a2.6036,2.6036,0,0,1,.7841-.9268h.3565v.0713q0,.4995-.9268,1.3545h-.2138Zm-3.6358,2.2812v.1426q-.2856.4995-.6416.499A.5671.5671,0,0,1,320.8861,86.0089Zm.0713,15.042-.0713.0713q-1.2129-.2841-1.3545-2.709v-.499l.2852-.2139q.6415,0,1.1406,3.2793Zm.7129-16.8242a.6423.6423,0,0,1,.2139-.57h.1425c0,.333-.0957.5234-.2851.57Zm.3564,8.9824h-.2138v-.1425l.2851-.2852h.0713v.2139Zm.7129,10.0518-.57-.57v-.1426l.2852-.1426a1.0186,1.0186,0,0,1,.57.8555Zm.7129,1.9248v-.2852h.499q3.2784.7134,3.6358,1.212h-.7842A4.7053,4.7053,0,0,1,323.4525,105.1857Zm4.7764,1.7109h-.9268v-.0713c.0469-.1894.3086-.2851.7842-.2851h.1426l.1426.2139Zm2.6377-.499-.0713.0713q-1.9966,0-1.9961-.4277v-.2139a4.88,4.88,0,0,1,2.0674.4277Zm7.1289,1.2832q0,.3559-1.2119.3565-1.0693-.1436-1.0694-.3565v-.1426a1.2423,1.2423,0,0,1,1.1407-.57h.6416a1.0786,1.0786,0,0,1,.499.57Zm1.64.3565h-.0712a1.9375,1.9375,0,0,1,1.2119-.8555l.1425.1426Q340.9183,107.6085,339.6351,108.0373Zm5.7032-13.9727q.142,2.9238-3.85,7.2l-2.5665,2.1387a23.3663,23.3663,0,0,1-4.705,1.3545l-1.2832-.1426q-3.4937-.8554-4.7764-2.3526-2.71-1.2831-2.709-1.996-1.2129-2.2091-2.21-4.1348v-.4277a55.8379,55.8379,0,0,1,.998-6.9151q0-.7836,2.2813-3.208a11.15,11.15,0,0,1,2.5664-3.6357q0-.9976,8.3408-1.3545h.8554a8.34,8.34,0,0,1,4.1348,3.4931q2.78,1.9966,2.78,2.4952a13.5226,13.5226,0,0,0-.2852,3.1367,11.5112,11.5112,0,0,0,.4278,3.707Zm1.497-10.9785-.2138.2139h-.2852a3.5491,3.5491,0,0,1-2.0674-1.5684h.2852a3.3366,3.3366,0,0,1,2.2812,1.2832Zm1.711,15.042q-.4278,1.141-.9981,1.1406v-.0713q.356-1.2114.7842-1.2119h.2139Zm.7842,0-.2852-.2139h-.3564l.0712-1.2832.0713.499h.1426Q349.4018,96.988,349.3305,98.1281ZM350.4,94.5636a3.0747,3.0747,0,0,0-.6416,1.711h-.1426q-.2856-.1422-.3564-2.2813c.0468-.4746.1181-.7129.2138-.7129h.1426L350.4,94.35Zm.2851-5.4179v.2851l-.2851.2852-.2139-.2852v-.2851l.2139-.2139h.0713Zm-.2006-6.9941a8.6655,8.6655,0,0,1-1.0994-1.62l.1672-.1511.2611-.1145L350.6516,82l.0286.0652Zm.5306-4.8255-.0286-.0652-.1226-.102.1673-.1511.13-.0573.0859.1958Zm.6641,3.29-.1958.0859-.0859-.1959.1752-.31.2612-.1145.0572.1306Zm.4915-2.7844-.2611.1145-.1592-.008-.0286-.0653q.2263-1.9674.945-2.2826l.1306-.0573.0653-.0286Q353.149,76.1572,352.1705,77.8313Zm7.8037-5.9909.1306-.0573q2.13-.4673,2.2449-.206l.0859.1958q-2.4074.9006-2.608.4431Zm-2.6824-.6141.7182-.315.4409.118a2.2082,2.2082,0,0,1-1.0561,1.3194.9647.9647,0,0,1-.7674.0252Q356.3127,71.6562,357.2918,71.2263Zm-3.7521-.9234a.925.925,0,0,1,.583-.8006q1.8271-.8012,2.0284-.3446l.1145.2611q.1436.3274-1.5623,1.23-.935.1765-1.0491-.0848Zm.3771,15.9481-.1878-.0734-.0287-.0652.0447-.2531.2817.11.0859.1959Zm2.9722.5648-.2612.1145q-.4575.2007-1.5439-1.0354l-.0572-.1307.0652-.0286q.5877-.2576,1.9517.5453l.0287.0653Zm-.0549-2.0777-.2165-.1386-.0572-.1305.1019-.1226q.5875-.2577.7388-.0905l.0858.1959Zm2.38.28-.1959.0859-.5635-.22-.1718-.3917.0733-.1878a.8285.8285,0,0,1,.8533.1707l.1431.3264Zm1.8232,3.0926q-.9633.1121-1.1637-.346l.0653-.0286q1.0571-.0733,1.2.2521Zm3.198-2.6479a7.908,7.908,0,0,1-3.1474-.2545l-.0287-.0652.0733-.1879q2.9757-.1373,3.1475.2545Zm4.2137,1.2658-1.2817.095-.1145-.2612a6.0236,6.0236,0,0,1,2.0285-.3446l.0859.1959Zm3.1041-2.6845-.8773.3069q-5.123.9237-5.2367.6617-.0282-.0644.7423-.7925a9.8639,9.8639,0,0,1,5.5389-.3273l.0286.0652ZM354.7156,98.9l.18.2325-.2039.2451-.1878-.0733-.1145-.2612Zm.5906,7.9145-.0653.0286L354.46,105.24q-.7858-2.1459-.59-2.2323l.1306-.0573.1878.0733.229.5223Q355.6489,106.3539,355.3062,106.8149Zm2.932,1.3608-.4123-.0527-.1145-.2611.3264-.1432.3757.1467.0573.1305Zm4.1853-3.2365a2.86,2.86,0,0,1-2.4372-.41l-.1146-.2612.1959-.0858a5.36,5.36,0,0,1,2.4007.5041l.0858.1958Zm8.9131,2.3965-.3757-.1466q-1.87.3531-1.9837.0915l-.0573-.1305,1.9507-.7q.26-.1141.7925.7423ZM382.075,96.3213a3.3357,3.3357,0,0,1-.4926,1.5394l-.13.0572-.1146-.2611a3.5616,3.5616,0,0,1,.5212-1.474Zm-.6973-3.8977-.11.2818-.2245.0206L380.9,92.4l.3264-.1432Zm-1.6847-3.309q-1.5114-.4265-1.797-1.08l-.1431-.3265.0652-.0287q1.693-.0417,2.0376.7412l.229.5223Zm-6.2671,17.305.0286.0652-.1959.0859-.1145-.2611Zm.001,1.245-.4043-.2119.1306-.0573c.3917-.1718.6475-.1794.7674-.0252l.0286.0653Zm4.0444-1.073-.1307.0572a5.4686,5.4686,0,0,1-2.71.5657q-.1148-.2616.8-.662,4.3091-1.89,4.7339-1.4532l.0572.1306Zm.7857-21.2843a25.2706,25.2706,0,0,1-4.3192-.4412l-.0859-.1958.5876-.2577a11.1843,11.1843,0,0,1,6.4666.9006l-.0446.2531-.0653.0286A4.0232,4.0232,0,0,1,378.257,85.3073Zm2.9311,19.1094-.2612.1146-.1878-.0734-.0859-.1958.0733-.1879,1.3057-.5726.2531.0447Q382.4,103.8066,381.1881,104.4167Zm2.89-4.77c-.1744.0764-.28.0715-.3184-.0161l-.0573-.1306,1.4181-2.8015.1959-.0858Q384.8619,99.3037,384.0781,99.6465Zm1.132-7.8915-.1959.0858-.2164-.1386-.1432-.3264.2933-.7513.1958-.086Q385.5733,91.5179,385.21,91.755Z"/></g><polygon class="cls-5" points="85.081 85.468 85.295 85.255 85.295 84.684 85.223 84.613 84.938 84.969 85.081 85.468"/><path class="cls-5" d="M125.7512,73.5651q-1.9248-3.92-4.705-3.9209-10.0518-1.0693-15.8262,1.4971v-.4991a3.3152,3.3152,0,0,1,.6416-1.4257v-.2139a15.99,15.99,0,0,0-3.6358-.7129h-1.7822a9.6382,9.6382,0,0,0-5.9883,2.21q.07,1.2831.2139,1.2832,0,3.9932.7129,3.9922v.1425c-.3809.1426-.57.2617-.57.3565v.1426l.1426.1425a9.2362,9.2362,0,0,1,2.8515-.7841h.4278q.9257,0,.9267,1.7822l.4277,19.5332v.1426l-.2138.0712q-1.9248,0-1.9248.57a5.2284,5.2284,0,0,0-2.15.71,3.3129,3.3129,0,0,1-1.0226-.4981l.1426-.7842L94.0632,95.52l-1.3545-2.9229a1.3692,1.3692,0,0,0-.1069-.4277c-.0713-.19-.1313-.3565-.1782-.499h.0713v-.7129a.6382.6382,0,0,0-.2852.0713q-2.496-8.4112-4.0635-15.6836l-2.2812-8.127L82.4431,57.0241q0-.9976-4.206-1.5684a15.2222,15.2222,0,0,0-3.7784,1.4971q-.8554,1.3549-1.0693,1.3545A29.227,29.227,0,0,1,71.18,63.44L67.9,73.0641l.0712.499A2.154,2.154,0,0,0,67.116,75.06l.2138.2139q0,.3575-.7841.9267l.2138.7129v.1426a4.44,4.44,0,0,0-1.2832,2.1387l-1.3545,3.3506-3.707,10.2656a11.9942,11.9942,0,0,1-1.1406,3.4219q.2139,0,.2138.4277v.2851a3.8679,3.8679,0,0,1-.8554,1.711h-.0713l-.0713-.0713.2852-.8555L58.49,97.445q-.7134,0-.7129.6416v1.0693l-.0713.2139q-1.2833.6415-1.2832,1.0693a3.89,3.89,0,0,1,.57,1.2832v.0713l-.2851.9268q0,.356,1.7822.4277,10.8354,0,10.8359-.7842,1.8531-1.4253,1.8536-1.9248v-.0713a5.5437,5.5437,0,0,0-4.2774-1.9961H65.4763a1.0571,1.0571,0,0,1-.7842-.2851,40.8159,40.8159,0,0,1,1.9249-5.7032h1.5683q9.9083-.9256,17.3233-1.497H85.58q2.9224,3.9932,2.9229,7.2v.2851l-.0713.1426q-2.6382,0-2.6377.8555l.7129,1.497v.2852l-.57.57a6.5017,6.5017,0,0,0,3.707,1.7822l4.42-.4277h.7129l.3419.1052a1.4448,1.4448,0,0,0,1.12.3958q0,.356,8.1982.6416l1.4258-.4277h.2851l3.3506-.3565.4278-.57.1425-3.9922-.2851-.9268v-.0712q0-.356-1.1406-.4278h-1.711q-.8554,0-.8555-.6416.1422-3.0644-.3564-15.2558a24.4652,24.4652,0,0,1,3.5645-4.42,19.503,19.503,0,0,1,6.5585-1.4257q2.8506,0,3.0655.3564,1.6392,1.7828,1.64,2.78,0,1.3549,2.6377,1.7822h.7129q3.2784,0,3.7783-.8555l-.9267-5.2754Q126.1076,73.5662,125.7512,73.5651ZM97.3069,70.6422l.2851.3565v.499l-.0712.1426a1.7,1.7,0,0,1-1.212-.57Q96.3088,70.7858,97.3069,70.6422Zm.3564,3.3506H97.45V73.85q.1421-.356.7842-.3564h.1425l.1426.2139Q98.4471,73.9933,97.6633,73.9928Zm-36.75,24.5928h-.0713l-.2138-.2139v-.2138l.2851-.0713.1426.2851Zm0-4.4912v-.2139l.499-.4277.1426.1426A.5584.5584,0,0,1,60.9138,94.0944Zm3.4932-.57-.2139.2138h-.1426l-.0712-.3564.0712-.4277h.1426l.2139.0713Zm14.8994-36.999h.3564a.5558.5558,0,0,1,.57.3564v.0713l-.1426.1426h-.57l-.2139-.2139ZM77.738,58.9489h.0713l.2139.1426v.2138h-.1426l-.1426-.2138Zm.2852,2.6377h.2139v.2851c0,.3809-.2139.57-.6416.57h-.0713A.9252.9252,0,0,1,78.0232,61.5866ZM69.1121,75.3454l.0713-.4278.2138,1.4258v.1426q0,.2856-.2138-.9268h-.0713Zm-.4991,1.7822h.0713v.2139H68.613Zm6.5586,11.834h-.2138v-.2139h.2138Zm6.4161-1.4971q-.0718.2856-.7129.2852h-.3565l-.1426-.1426.1426-.2852h1.0694Zm4.42-1.5684-.2139.2852H82.8709a98.6369,98.6369,0,0,0-14.6856,1.4971l-.2139-.1426v-.3565a41.2573,41.2573,0,0,1,2.5664-8.3408q2.209-3.5639,7.2-13.5449.07-.7837.0713-1.4971a2.7546,2.7546,0,0,1,.8555,1.2119,33.903,33.903,0,0,1,1.5684,4.7051l4.4912,13.5449q.9258,0,1.2832,2.5665Zm3.3506,17.3233H89.073v-.1426a.6122.6122,0,0,1,.6416-.3564l.1426.2138C89.8093,103.1237,89.6433,103.2194,89.3582,103.2194Zm2.3525-9.7666-2.0674.1426V93.31h2.0674Zm1.4971,4.6338h-.0713l-.2139-.2139v-.499h.0713l.2139.2139Zm6.1665-28.1573v-.2851h.2138l.8555.6416v.1426H99.802Zm2.0674,30.9395v.2139H98.1226l-.0168-.2852h.912Zm-5.8457.0713.0474.0474c-.0221.0017-.05.0017-.0727.0031Zm5.7744,1.5683H99.2317a9.16,9.16,0,0,1-1.6085-.1016,2.4789,2.4789,0,0,0,.3059-.4562l.162-.0125q3.7778.1435,3.7783.4991Zm2.78-32.65.3565-.1426.2139.1426-.2139.2851h-.3565Zm0,24.3808v-.57l.2852-.2139h.1426l.1426.1426v.4278l-.2852.2138Zm.2852.7842v.2852h-.1426v-.2852Zm-.4277-23.8105.2851-.2139h.2139v.2139l-.3565.2851-.1425-.1426Zm-.7129,10.1943q-.3575,6.63-.57,6.63h-.0713l-.1426-2.8516q.1421-2.6367.2139-2.9228a3.3114,3.3114,0,0,0-.3565-1.4971v-.3565a1.1782,1.1782,0,0,1,.57-1.0693h.1426q.2842,0,.3565.6416Q103.4378,81.4079,103.2952,81.4069Zm-.2139-2.5664H103.01a.9716.9716,0,0,1-.4277-.7129l.3564-1.4971h.2852l.2139,1.2119Q103.2941,78.8414,103.0813,78.8405Zm1.7109,22.67h-1.0693l-.2139-.2139q0-.2137,1.212-.3564.3559.1435.3564.2851Zm1.4971-26.9473-.2139.2139h-.2138l-.2852-.2139v-.2138l.2852-.0713.4277.0713Zm5.8457-3.7783q-1.0693,2.0683-1.7109,2.0674V72.71a1.9731,1.9731,0,0,1,1.64-2.2812h.0713ZM114.06,72.567h-.57l-.3564-1.4257q0-.2139.499-.2852h.2139l.2138.2139Zm1.64-1.7109h-.7129l-.1426-.2139v-.0713L115.7,70.5h.4277l.1426.0712Q116.198,70.8567,115.7,70.8561Zm1.9248-.2852h-.499v-.1425c0-.0948.1894-.1895.57-.2852l.2138.2139Zm1.7822.2139-.1426.1426h-.3564v-.0713l.2851-.2139h.2139Zm1.9248,2.4951q-.999,1.6407-1.3545,1.711H119.62q.142-.4278.2138-.4278,0-.9258,1.212-1.497c.1894,0,.2851.0478.2851.1425Zm.7129,3.5645-.2852.2139h-.1425v-.1426c0-.0469.1181-.1426.3564-.2852h.0713Zm.2139-6.2022-.1426.2139H121.83l-.1425-.2139v-.0713l.1425-.1425h.2852l.1426.1425Zm2.78,3.0655h-.2138a1.5608,1.5608,0,0,1-.9981-.57v-.1426h.2139a1.567,1.567,0,0,1,.998.57Z"/><path class="cls-5" d="M159.5066,73.5631q-1.9248-3.92-4.7051-3.9209-10.0518-1.0694-15.8262,1.4971V70.64a3.3155,3.3155,0,0,1,.6417-1.4258v-.2139a15.99,15.99,0,0,0-3.6358-.7129H134.199a9.6388,9.6388,0,0,0-5.9883,2.21q.07,1.2833.2139,1.2832,0,3.9931.7129,3.9922v.1426c-.3809.1426-.57.2617-.57.3564v.1426l.1426.1426a9.2354,9.2354,0,0,1,2.8516-.7842h.4277q.9258,0,.9268,1.7822l.4277,19.5332v.1426l-.2139.0713q-1.9248,0-1.9248.57-2.78.4278-2.78,1.7822a23.7125,23.7125,0,0,0,.1425,2.6377q0,1.2833,1.4258,1.2832,0,.356,8.1983.6416l1.4258-.4277h.2851l3.3506-.3564.4277-.57.1426-3.9921-.2852-.9268v-.0713q0-.3559-1.1406-.4277h-1.7109q-.8554,0-.8555-.6416.142-3.0645-.3564-15.2559a24.4717,24.4717,0,0,1,3.5644-4.42,19.504,19.504,0,0,1,6.5586-1.4258q2.8506,0,3.0654.3565,1.6392,1.7826,1.64,2.78,0,1.355,2.6377,1.7823h.7129q3.2783,0,3.7783-.8555l-.9268-5.2754Q159.863,73.5641,159.5066,73.5631ZM131.0623,70.64l.2851.3564v.4991l-.0713.1425a1.7,1.7,0,0,1-1.2119-.57Q130.0642,70.7839,131.0623,70.64Zm.3564,3.3506h-.2139v-.1426q.1422-.3559.7842-.3565h.1426l.1426.2139Q132.2024,73.9913,131.4187,73.9909Zm-1.7822,27.7314h-.2852l-.1426-.2139v-.2851l.1426-.2852.2852.2852ZM133.13,69.9274v-.2852h.2139l.8555.6416v.1426h-.6416Zm-1.7822,30.8682h1.4258l2.4238.0712v.2139h-3.9209l-.0713-.1426Zm3.7783,1.7109h-2.1386q-2.0683,0-2.0674-.3564v-.1426l.9267-.0713q3.7779.1435,3.7784.499Zm2.78-32.65.3565-.1426.2138.1426-.2138.2852h-.3565Zm0,24.3809v-.57l.2852-.2139h.1425l.1426.1426v.4277l-.2851.2139Zm.2852.7841v.2852h-.1426v-.2852Zm-.4278-23.8105.2852-.2139h.2139v.2139l-.3565.2852-.1426-.1426Zm-.7129,10.1943q-.3573,6.63-.57,6.63h-.0713l-.1425-2.8515q.142-2.6369.2138-2.9229a3.3113,3.3113,0,0,0-.3564-1.4971v-.3564a1.1779,1.1779,0,0,1,.57-1.0693h.1426q.2841,0,.3564.6416Q137.1931,81.4059,137.0505,81.4049Zm-.2138-2.5664h-.0713a.9713.9713,0,0,1-.4277-.7129l.3564-1.497h.2852l.2138,1.2119Q137.05,78.84,136.8367,78.8385Zm1.7109,22.67h-1.0693l-.2139-.2138q0-.2139,1.2119-.3565c.2373.0957.3565.1905.3565.2852Zm1.4971-26.9472-.2139.2139h-.2138l-.2852-.2139v-.2139l.2852-.0713.4277.0713Zm5.8457-3.7783q-1.0693,2.0683-1.7109,2.0673v-.1425a1.9732,1.9732,0,0,1,1.64-2.2813h.0713Zm1.9248,1.7822h-.57l-.3565-1.4258q0-.2139.4991-.2851h.2138l.2139.2138Zm1.64-1.7109h-.7128l-.1426-.2139V70.569l.8554-.0713h.4278l.1426.0713Q149.9534,70.8546,149.4548,70.8542Zm1.9248-.2852h-.499v-.1426c0-.0947.19-.1894.57-.2851l.2139.2138Zm1.7823.2139-.1426.1425h-.3565v-.0712l.2852-.2139h.2139Zm1.9248,2.4951q-.999,1.6406-1.3545,1.7109h-.3565q.1422-.4276.2139-.4277,0-.9258,1.2119-1.4971c.19,0,.2852.0479.2852.1426Zm.7129,3.5644-.2852.2139h-.1426v-.1426c0-.0469.1182-.1426.3565-.2851H155.8Zm.2138-6.2021-.1425.2139h-.2852l-.1426-.2139V70.569l.1426-.1426h.2852l.1425.1426Zm2.78,3.0654H158.58a1.56,1.56,0,0,1-.998-.57v-.1426h.2139a1.5677,1.5677,0,0,1,.998.57Z"/><path class="cls-5" d="M196.6482,97.0885h-.2852q-.4276,0-.4277-4.6338V90.3874a52.1764,52.1764,0,0,1,.9981-8.626V81.69l-.1426-.1426.7842-8.84a2.2991,2.2991,0,0,0-.3565-1.2119q-.1436,0-.2851,1.0693H196.72l-.7129-1.64c0-.1894.2607-.2851.7842-.2851v-.2852a5.6163,5.6163,0,0,0-4.0635-1.2119h-1.5684l-1.64-.8555q-.5.0718-.499.8555a2.055,2.055,0,0,1-.7842,1.7822v.0713l.1426.7129v1.2832l-1.2832,13.5449v.6416h-.0713a5.0368,5.0368,0,0,1-.6416,1.9249l.1426.3564v.4277h-.3565a14.7411,14.7411,0,0,1-2.2812,2.709q-2.2105,3.2081-3.7071,3.208h-.2851q-4.705-.356-4.7051-.7842l-.499-1.1406a2.5964,2.5964,0,0,1-1.711-2.709q-.2856-14.3994.3565-18.9629l-.1426-.7841a4.8412,4.8412,0,0,1-.8555-2.2813l-4.8476-1.64q-5.5607.2856-5.5606,1.0693-.6415,0-.6416,1.9248a8.475,8.475,0,0,0,.4278,3.5645,33.0909,33.0909,0,0,1,4.8476.9267v.2139l-.7842,8.3408q0,8.6265,1.8536,11.2637.9975,3.3516,5.4892,7.77a14.48,14.48,0,0,1,3.4219,1.2832,17.7627,17.7627,0,0,0,2.8515-1.1406q4.7754-1.5675,4.99-2.0674a19.2143,19.2143,0,0,1,4.206-1.9248h.2139l-.1426.6416a1.0784,1.0784,0,0,0,.4278.8554q.6415,2.9239,1.2832,2.9229l7.913.1426,2.1387-.1426.7842.6416q.57,0,.8555-6.416a5.48,5.48,0,0,0-1.2832-.8555A23.873,23.873,0,0,1,196.6482,97.0885ZM167.7048,69.0719l.3565-.1426h.3564q.8554.1437.8555.2852,2.1387.2856,2.1387.7842v.1426q-.3575.5712-2.0674.57h-.4277c-.0957,0-.1426-.3086-.1426-.9268a4.9431,4.9431,0,0,1-1.0694-.6416Zm3.3506,3.85v.7842a.8623.8623,0,0,1-.4277.8555l-.2139-.1426V73.0641q0-.6415.2852-.7129h.1426A.6426.6426,0,0,1,171.0554,72.9215Zm-5.0615-4.42.2852-.1426.2138.1426v.1426h-.499Zm-3.707,2.4238h.9267v.2139l-.57.0713H162.43l-.1426-.0713ZM163,73.2067h-.57l-.1426-.1426.2851-.2851h.3565l.2851.2851Zm.499-1.1406-.0713.1425q-.7134,0-.7842-.4277v-.1426h.57l.2852.2852Zm.998.3564q0,.2139-.6416.3565v-.0713l-.0713-.0713v-.2139l.3565-.1426h.3564Zm.57.0713c.0469-.1895.3086-.2852.7842-.2852h.57a3.596,3.596,0,0,1,1.9248.9981c0,.333-.0957.499-.2851.499h-.7129Q165.0662,72.9221,165.0671,72.4938ZM168.56,84.2565v.2852l-.2139.2138-.2851-.1426V84.47l.2851-.2852Zm-1.2832-7.9844q.57-1.497.9268-1.497l.1425.2138V76.486l-1.0693.3564Zm3.85,21.6719a1.9536,1.9536,0,0,1-.7842-.3564q-2.9942-5.9166-2.9941-8.6973v-.2852l.2139-.2138h.0713q.498.1435,1.4257,3.4218l2.0674,5.7745Zm-.2139-9.3389a1.5539,1.5539,0,0,1-.9267-1.4258V86.68a.7378.7378,0,0,1,.4277-.7129h.2852q.4276,0,.4277,2.6377Zm.9981,3.2793a.642.642,0,0,1-.57-.4277v-.0713q.57,0,.57.4277Zm2.5664,5.1328h.2139a21.79,21.79,0,0,0,5.1328.8555v.0713q0,.2856-2.8516,1.4258-2.496-1.4971-2.4951-2.2813Zm-1.1406-1.9961h.0713l.1425.2139v.2139h-.0712l-.1426-.2139Zm-.6416,1.7823v-.2852h.2138l.2852.2852v.2851C172.9089,97.0885,172.742,96.9938,172.6951,96.8034Zm9.0537,4.0634-.0713.0713q-3.5655,1.7827-4.7764,1.7823-3.9932-.7837-3.9922-1.4258v-.0713l.2852-.2852h.1426l2.8515.2852h.57a17.3351,17.3351,0,0,0,4.4912-.57h.499Zm.9267-2.9941a6.1557,6.1557,0,0,1-3.707,1.9248h-.8555v-.1426a24.0966,24.0966,0,0,1,4.2061-2.0673h.3564Zm3.2793-6.4873a10.6985,10.6985,0,0,1-1.7109,2.6377h-.0713l-.0713-.1426a21.3324,21.3324,0,0,1,1.64-2.6377h.2138Zm1.9961,1.3545-.2851.2139h-.0713l-.3565-.2139a1.7361,1.7361,0,0,1,.4278-.8555l.2851.3565Zm.9268,3.208-.499.4277h-.1426v-.0713a.5671.5671,0,0,1,.6416-.6416Zm.7129-26.02h.1426q1.639.1435,1.64.499v.0713l-.2139.1426h-.4277Q189.59,70.64,189.5906,69.9274Zm1.1406,2.9228H190.66q-.5,0-.499-.2851v-.1426l.2139-.2139h.2138q.6417,0,.7129.2139v.1426Q191.23,72.8507,190.7312,72.85Zm.4277,12.9034q-.0717,1.2831-.4277,1.4257l-.3564-.3564a1.4241,1.4241,0,0,1,.57-1.2119h.1426Zm-1.1406,2.709v-.6417l.2139-.2138h.4277l.2139.2138v.2852a1.3991,1.3991,0,0,1-.6416.6416Zm.57,4.5625v.2138l-.2138.2139h-.1426v-.499h.1426Zm.2852,9.1962H190.66q-.5,0-.499-4.99v-.8555l.2139-.2138.3564.4277q.07,4.207.6416,5.2041C191.3728,102.0319,191.2058,102.1745,190.8738,102.2213Zm.499-21.8857V80.05q.3559-2.0668.57-2.0673c.0947,0,.166.2382.2139.7128q0,1.6407-.7129,1.64Zm.7842,10.4082-.2139.2139-.2851-.2139v-.0713l.2851-.2851h.1426Zm.3564,2.0674a8.04,8.04,0,0,1-.2851,2.0674h-.2139a15.4587,15.4587,0,0,1-.3564-2.9229V91.528h.1425q.7121,0,.7129.7842ZM194.0105,82.26h.2139v.6416h-.0713c-.0957,0-.19-.1182-.2852-.3564Zm.9268,18.82-.2139.1426h-.7129q-.7134,0-.8555-.3565v-.2138l.2139-.1426h.6416q.9258.0718.9268.4277Zm.2138-4.9189-.2851.2138h-.7129v-.2138l.7129-1.0694c.1894.0479.2851.2852.2851.7129ZM197.6462,98.8h-.2851l-.4277-.0713V98.443l2.21-.2851h.0713V98.3Q199.2146,98.7282,197.6462,98.8Zm1.711.8554-.2139.1426h-.2851V99.37h.2851c.1426,0,.2139.0478.2139.1426Z"/><path class="cls-5" d="M202.02,58.95a6.2318,6.2318,0,0,0,2.0262,3.5817q1.3918,1.0207,5.72-.1769a3.8836,3.8836,0,0,0,2.5014-1.6534,8.9993,8.9993,0,0,0,.5613-3.8536L211.74,54.7818a4.35,4.35,0,0,0-4.4632-1.4282l-2.2411.99q-2.2.6084-3.3667,4.4076l.038.1374C201.7326,58.9806,201.8364,59.0005,202.02,58.95Zm8.612-2.8258.0687-.019.095.3435-.13.3318-.0687.0191-.076-.2749Zm-.2617,1.9955.1375-.0381.057.2061a.8724.8724,0,0,1-.6228.69l-.2749.076-.057-.2061A1.2244,1.2244,0,0,1,210.37,58.1194Zm-1.93,2.3828,1.0307-.285.2631.1491-.1681.1944-1.2368.3421-.038-.1374Zm-1.2441-3.4281.1067.1184q-.0539.6076-.81.8158l-.1374.038-.4313.0453-.0687.019a.6961.6961,0,0,1,.516-.8084Zm-1.2572-1.8713.3816.0425q.0951.3444-2.1651,1.2645l-.019-.0687Q204.0419,56.0981,205.9393,55.2028Z"/><rect class="cls-5" x="315.6762" y="72.672" width="0.3564" height="0.3564"/><path class="cls-5" d="M382.2515,84.7668a11.767,11.767,0,0,0-1.916-1.8842l-.0573-.1306c.2611-.1145.3729-.2147.3345-.3024l-.1146-.2611-.3757-.1466q-5.619-2.5168-7.9864-2.4138-1.9587.859-2.9757.1374-3.3386.3747-3.5678-.148a19.3442,19.3442,0,0,1-7.1219,1.3328q-4.7521-.7183-6.3268-4.3092l-.0286-.0652a4.9934,4.9934,0,0,1-.4477-3.1509q.0439-1.4973,3.308-2.93l1.8853-.6711q2.742-1.2026,10.3839-.8172a3.84,3.84,0,0,1,3.2871,1.2829q.2865.6534,4.0855-.624.3261-.1429.6564-.9884.4519-.742-.5783-3.0936l-.83-1.8934-3.2789-5.8793q-.2-.456-2.159.4019a3.9748,3.9748,0,0,0-1.9621,1.561q-1.1753.5154-.803,1.3641l.2.457.0573.1306a3.308,3.308,0,0,1,.2793,2.0571,23.6212,23.6212,0,0,1-5.1473.1555q-8.8891,1.563-10.5866,2.3074l-.8648.6906q-.1219,1.1442-2.3723,3.9983-1.9025,4.182-1.5591,4.965a5.5324,5.5324,0,0,0-.3168,1.7632,24.6424,24.6424,0,0,0-2.0873-1.9967,41.4433,41.4433,0,0,0-7.5566-4.7764h-.6416l-1.9961-.57a22.3686,22.3686,0,0,0-7.2,1.64q-5.1328,2.1387-8.4834,9.3389-1.5688,1.2832-1.5684,4.5625c-.3434.9285-.6371,1.7468-.8886,2.4711.0214-.4351.0332-.9446.0332-1.5443q0-2.78,1.0693-11.834v-.499q-.7851-.1422-.7842-.4278l.0713-.998a9.3166,9.3166,0,0,0,.7129-3.2793V68.6085q0-.4276.57-.7841c0-.4746.0469-.7129.1426-.7129q.2841-10.55.6416-13.9727,0-.2841-.7842-1.2119a5.9447,5.9447,0,0,0-.2851-2.0674q0-.2841-2.9229-.8554l-3.1367.0712-.4277.0713v.1426l.2851.2852V49.86q-1.6405,0-1.64.7129a.6.6,0,0,0,.3564.499c.332,0,.5225.0957.57.2852v.2852a2.6238,2.6238,0,0,0-1.1406.2138q.1421,4.919.7842,4.919a7.6746,7.6746,0,0,1,3.1367,1.497q-.2139,0-.57.57-.6417,12.7619-1.2832,15.8975h-.2139l-.499-.2851q-4.7769-3.92-12.333-3.9209h-.6416q-4.9189,0-7.2,2.0673a23.6147,23.6147,0,0,0-3.2793,4.5625A23,23,0,0,0,282.6693,88.57q.07.4995.2139.499l.4277-.4277q0-.57.2139-.57l.1426.2138v1.3545q0,.5713-.3565.7129h-.1426l-.0712-.6416h-.4278q-.0543.6476-.149,2.3992a4.3967,4.3967,0,0,1-.2074-1.2586l.2851-7.0576-.0713-1.7822q0-3.92-1.1406-5.0615-.9272-4.8473-2.4951-6.4873-.7851-2.2091-4.9189-6.1309a23.7406,23.7406,0,0,0-4.7764-.998l-8.84.2138a8.6792,8.6792,0,0,0-2.4238,1.1406q-4.2773,2.78-5.418,6.06c-.11,1.45-.204,2.5808-.2834,3.4213-.0772-.1295-.1459-.2638-.2264-.3915a9.4243,9.4243,0,0,0-3.9922-3.3506,8.7379,8.7379,0,0,0-5.2041-2.1387q-3.6359,0-9.41,2.4952-2.4243.7133-2.8515,1.497-.8556,0-1.1407-1.9961V69.0719a6.8423,6.8423,0,0,1,.4278-1.9961l-.2139-.2138h-5.8457a19.9119,19.9119,0,0,1-3.4219-.2852l-.1426.1426-1.1406,3.208.1426,2.6377a2.2422,2.2422,0,0,1-.3565,1.2119v.2852q.8556.8554,1.3545.8554L223.56,74.49h.3565q.57,0,.57,6.7012l-.2852,6.5586v3.7537a7.7543,7.7543,0,0,0-3.58.4676l-.2061.057q-.5506.1524-.6944-.1038a9.1746,9.1746,0,0,1-.1243-1.5188q-1.6453-7.015-3.9179-18.4433l-.3041-1.0994a6.61,6.61,0,0,0-1.3405-2.44l-.3231-1.1681-.2018-.4619q-.1518-.5491-9.4965,2.035l-.7792.6593a2.085,2.085,0,0,1-1.5072-.1009l-.2061.057-.0994.1755a4.0438,4.0438,0,0,1-.1476,2.4077q.5453.3674.6212.6418l-.1154.9195q.1332.4815.4268.4737.2664.9628,4.3886-.1784-.1677.1955-.1491.2631.0762.2754,2-.2573l.1375-.0379,4.1737,18.2985q.8553,3.092.1681,3.282-5.1531,1.4253-4.9631,2.1124l.6315,1.7485.2091.7558.2207.5306q.1524.5507,6.1751-.6725l.038.1375a40.3318,40.3318,0,0,1-4.6459,1.6548l-.1374.038a.8824.8824,0,0,1-.6944-.1038l-.2061.057a1.63,1.63,0,0,0-.4781.9459,3.2528,3.2528,0,0,1,.83,1.3976q.342,1.2368,8.0375-.8918L222.9,101.77c.0061.03.0122.0667.0182.095a1.8724,1.8724,0,0,0,1.7822,1.2119l8.27-.0713a10.4991,10.4991,0,0,0,.7129-3.6357v-.1426a2.26,2.26,0,0,0-.4991-1.64q-2.71-.4278-2.7089-.7129V96.59l1.1406-.0713,1.5683.0713v-.2852q0-.57-2.8515-1.0693-.3575,0-.499-7.2,0-3.9917.998-4.7764,3.2081-3.4921,3.4932-3.4931a9.9536,9.9536,0,0,1,7.414-3.4932,14.4874,14.4874,0,0,1,2.709.9981q3.0645,3.5653,3.0654,5.4892,0,1.5688-.2138,1.5684l-.4278,6.3447a59.7548,59.7548,0,0,0-1.497,6.3447,4.342,4.342,0,0,0-1.2119,3.4219l.0713,2.5664q0,2.1387,2.4951,2.4951a30.2224,30.2224,0,0,1,7.2-.9267h1.497a5.8583,5.8583,0,0,0,3.0655-.8555c.2752,0,.503-.4949.6861-1.4576a14.2379,14.2379,0,0,0,3.1743.9229h.3565a21.0409,21.0409,0,0,0,6.2021-.8554q.07-.0718,8.4834-3.3506,4.6334,4.0635,5.7744,4.206h.0713q.4982,0,2.3526-1.8535c.3887-.2887.7276-.5576,1.0255-.81a16.8316,16.8316,0,0,0,6.9588,3.7329q4.4913-.2857,10.4082-3.5645a5.9993,5.9993,0,0,1,2.9229-1.5683l-.1426,2.2812q.356,3.6357.6416,3.6358l2.709.0712,1.9248-.4277h.7842l.3564.57h.4278q3.4922,0,4.0634-1.497l-.3564-.57v-.6416l.3564-.3564q0-1.2832-3.5644-2.0674v-1.64c.3019-1.8361.5215-3.3021.6636-4.4195.2184.487.4413.9785.6909,1.4966q0,3.066,6.4873,8.84,5.1329,2.0668,6.3447,2.0673h1.3545a50.1827,50.1827,0,0,0,5.6318-.2851q2.7086,0,5.5606-2.709,6.3442-8.7686,6.63-10.123a39.0622,39.0622,0,0,1,.9267-4.7051l-.2138-2.5664.1425-.9268-.6416-1.4258c-.0777-.5431-.1511-.9735-.2208-1.3029a14.68,14.68,0,0,0,3.054,2.4081l3.491,1.0378,6.3969.3864a30.0944,30.0944,0,0,1,6.42-1.3363,5.0863,5.0863,0,0,1,4.3718.0289q4.59,1.4133,5.42,3.3057l.0859.1959a11.3126,11.3126,0,0,1-.13,5.7394q-.2673,2.7644-3.7272,4.2812l-2.2851,1.002a5.6615,5.6615,0,0,1-4.8289.1716,63.1479,63.1479,0,0,1-7.5284-1.3691l-3.2882-2.528q-2.0318-3.3893-2.4887-3.19l-3.978,2.2893q-.5231.23.4512,2.4488l1.1222,4.3341a26.81,26.81,0,0,0,2.9479,5.48q.3435.7835,4.743-.3674.5218-.2289.3037-2.8576l.2611-.1146a12.9446,12.9446,0,0,0,5.8138,1.1869q.4561-.2,4.3764.5718.2289.5218,5.73-.9561l2.2851-1.0021a10.1562,10.1562,0,0,0,5.0364-5.5559,9.9952,9.9952,0,0,0,2.0734-5.0349Q384.828,90.6434,382.2515,84.7668Zm-8.0681-16.6231.1145.2612-1.2771.6379a4.2073,4.2073,0,0,1-2.0365.5038l.2038-.2451.5224-.229A23.9435,23.9435,0,0,1,374.1834,68.1437Zm-3.4884-7.4221.3264-.1431.1718.3917-.3265.1431-.2531-.0447Zm-.977-1.5177.1145.2612a.9326.9326,0,0,1-.4971.9964q-.5232.23-1.7558-.6312l-.0573-.1306Q369.5454,58.8126,369.718,59.2039Zm-2.354,6.17.1306-.0573q2.1222-.3069,2.2655.0184l.0572.1307-.008.1591a5.5915,5.5915,0,0,1-2.5186-.0631Zm-3.0434,2.113q2.8818-.1728,3.0536.2178l.0286.0653a8.7976,8.7976,0,0,1-3.0615-.0586l-.0573-.1306Zm-.7489-2.24.0286.0654-.1958.0858q-.8116.2792-.898.0824l-.0286-.0652Q363.5149,65.1169,363.5717,65.2465ZM217.601,97.0965l.3435-.0951q.19.6876-.4283.8582l-.37-.2676A.5548.5548,0,0,1,217.601,97.0965ZM213.6845,73.845l.095.3435-.13.3319-.2062.057a.6989.6989,0,0,1-.5145-.5234l-.1141-.4122.2559-.1448A.8668.8668,0,0,1,213.6845,73.845Zm-1.9838-.4868q-.323-1.1676.57-1.4151l.4123-.1141.2631.1491.076.2749-.13.3318q-.7568.2094-.0716,2.6826l.114.4123-.0234.45-.0687.0191q-.2061.0568-.652-.4854l.1389-1.37Zm.51-5.91.2631.1491.057.2061-.1374.0381-.3318-.13Zm-8.7919,3.2454-.3436.0951L203,70.5133q-.0759-.2739,1.71-.7689l.2062-.0571.2135.2369Q205.2056,70.2,203.419,70.6931Zm4.4456.0278-2.2674.6271-.2061.0571-.7558.2091q-.9628.2663-1.0379-.0088l-.057-.2061,1.2367-.3421q3.9086-1.3759,4.0042-1.0336l.0189.0687Q208.8956,70.4367,207.8646,70.7209Zm2.4093-1.1841.6374-.1024.9619-.266,1.4619-.33.114.4122-.7719.9532-.1374.038q-.24-.5993-.5146-.5234l-.1374.0381c.038.1374.0109.2188-.08.2441l-.1374.038a1.9533,1.9533,0,0,0-1.3582-.364Zm1.1023,10.9379q-1.6755-6.8592-.6447-7.1443.2059-.057.5642.4356,1.7164,7.81,1.4415,7.8855l.038.1374a4.5493,4.5493,0,0,0,.6929,1.4356q.0384.1383-.2792.595l.4035.9239.114.4123a7.7672,7.7672,0,0,1,.0044,2.9574l.3538,1.0116q.1018.6376-.1038.6944-.1383.0382-.3391-.4239ZM214.9476,98.2l-.481.133q-3.729.9585-4.4309.56l-.0191-.0688.443-.27a44.4421,44.4421,0,0,1,5.0421-1.0248l.038.1374C215.5109,97.9218,215.3137,98.0989,214.9476,98.2Zm1.0979-9.4015-.0687.019a20.5649,20.5649,0,0,1-.4957-3.931l.3436-.095.2017.4619.1331.481Q216.3884,88.7049,216.0455,88.7987Zm.3932,3.2937-.133-.481q-.0912-.8623.0468-.9005l.2061-.057.1331.481q.19.6874-.1155.9194Zm.2544,1.187-.095-.3435.13-.3319.0687-.019.2632.1492.057.2061-.2179.2821Zm1.3362,6.4353-.981.1974-.0759-.2749.9619-.266.8742-.3158.8435-.1594.2748-.076.057.2061Zm10.3069-22.73c0-.1894.0713-.2851.2139-.2851h.1425q.57.1435.6416,2.78a8.334,8.334,0,0,1-.57,3.3506h-.0713q-.4995,0-.499-3.5644a1.03,1.03,0,0,0-.3564-.7129,1.58,1.58,0,0,0,.6416-1.1407Zm-1.3545-1.64a1.6535,1.6535,0,0,0,.2852-1.1407V72.9215l.1425-.4277h.3565q.2841,0,.499,1.1406a4.396,4.396,0,0,1,.7842,1.5684q0,.4276-.9981,1.2119a8.026,8.026,0,0,1-.4277,1.64.8357.8357,0,0,1-.3564-.7841V76.7l-.2852-.9981Zm-3.9951,20.6313.7675-.4343c.0685-.4627.1663-.736.2909-.82l.2748-.076c.1954-.0044.3384.1537.4269.4737l.0169.0608c.0012.0171.0081.0379.0081.0542v.0713l-.3564.499c-.5479.11-.9882.2156-1.3255.3182A1.0158,1.0158,0,0,1,222.9866,95.9767ZM225.2,75.2028c.0468-.4746.1425-.7129.2851-.7129h.2139l-.2139.9268h-.1426Zm-1.039,22.0764-.13.3318-.1374.038-.0381-.1374.13-.3318.1374-.038Zm-3.5948-28.35,5.8457-.9267v.1426h.1426v.1425l-.2852.4278q0,.6415-4.6338.6416-1.0693-.07-1.0693-.2852Zm1.0693,4.5625-.2851.2852h-.7129v-.1426q0-.1421.6416-.3564l.3564.1426Zm.0713-2.2812a2.0434,2.0434,0,0,1-1.2832.6416c-.2383-.0947-.3564-.2139-.3564-.3564v-.0713q0-.2139.499-.2852h1.1406Zm.499-.2852-.2138-.2138q0-.2843.9267-.2852l.3565.0713q0,.3575-.9268.4277Zm1.9961,1.2832h-.2138l-1.3545.0713v-.1425l.0713-.0713a19.7589,19.7589,0,0,0,2.8515-1.1407h.2139l.0713.2139-.0713,2.3525c0,.1905-.0713.2852-.2139.2852a1.3238,1.3238,0,0,1-.8555-.2852,1.0258,1.0258,0,0,1,.3565-.7128v-.2139Q224.9134,72.2091,224.2014,72.2086Zm-1.52,20.5241.4123-.1141c.5948-.1645.9187-.1548.9692.0278l.057.2062a2.8043,2.8043,0,0,1-1.6256.0058Zm9.1484,7.4925q0,.3575-3.5645.3565a9.185,9.185,0,0,1-1.2315-.0651l.7643-.2493.1681-.1945-.0877-.2264c.4223-.0316.9258-.0489,1.5274-.0489Q231.8285,99.7975,231.8294,100.2252Zm41.7862-34.8959h.1426a1.5626,1.5626,0,0,1,.9267.57v.1425h-.0712a1.56,1.56,0,0,1-.9981-.57Zm-5.2754-.57h.3565l.2138.3565-.0713.1426h-.4277l-.2139-.2852Zm-2.4951,2.709h.57l.4277.4278-.2138.2138h-.9268l-.2138-.3564Zm-3.4932-1.7822a6.0086,6.0086,0,0,1,2.21-.2852h.2852v.2852a5.506,5.506,0,0,1-1.7823.4277c-.4277,0-.666-.0713-.7129-.2138Zm-6.416,2.2812q1.2114-1.4251,1.9248-1.4257h.0713v.2138q-1.2833,1.3551-1.9248,1.3545h-.0713Zm-.7842,5.418.2139-.1426.1426.1426v.57c0,.2852-.0957.4522-.2852.4991h-.0713Zm-1.1406,3.3506q.4278-1.2114.7129-1.2119l.4277-.1426q2.423,0,2.5664-.3564A9.0671,9.0671,0,0,1,259.5,70.2482q0-.7837,3.7783-1.5684l2.9228.4278q4.2774,0,5.8457,2.6377a23.3006,23.3006,0,0,1,2.5665,6.416c0,.19-.1192.2851-.3565.2851H273.83a7.0648,7.0648,0,0,0-3.85-.7841h-.4278l-3.208.0712a15.4,15.4,0,0,0-7.3427,1.9961,5.1425,5.1425,0,0,0-2.2813,1.711,17.6489,17.6489,0,0,0-1.8148,2.5106,20.9478,20.9478,0,0,0-1.4487-7.3093C253.6278,76.675,253.8092,76.7068,254.0111,76.7355Zm4.7764,5.1328v.1426a.7433.7433,0,0,1-.7129.57h-.1426v-.3564l.7842-.3565Zm-1.1515,19.2069a1.4342,1.4342,0,0,1-.6307-.5292l.065-.0867a.6289.6289,0,0,1,.5657.4075Zm-.2743-4.1649h-.3564l-.1426-.1426v-.0713l.1426-.1425h.1425l.2139.2138Zm-6.213-9.5884q.498,0,.57.9268h-.3564l-.2139-.8555Zm-.1426,5.6319h.1426V93.31h-.1426Zm-.0713,3.6357q0-.7838.2139-.7842h.1426v.1426l-.2852.7842h-.0713Zm-.0713,1.2832h.2852l.2139.2852V98.3l-.2139.1426-.2852-.2851Zm-2.2812-5.3467h-.0713l-.0713-.0713q.07-1.497.3565-1.497v.8554Q248.7962,92.5265,248.5823,92.526Zm.2139.3565v1.2119l-.2139.8555H248.44a2.013,2.013,0,0,0-.4277-1.3545Q248.012,92.8835,248.7962,92.8825ZM248.44,78.1256v-.2138q.7119,0,1.2119,2.4238v.6416l-.1426.499A15.5547,15.5547,0,0,1,248.44,78.1256Zm-13.4023-7.1289h.1425v.1426c0,.0957-.2138.2139-.6416.3565v-.0713l-.0713-.0713C234.467,71.2106,234.6565,71.0924,235.0374,70.9967Zm-4.7764,2.1387a3.13,3.13,0,0,1,1.9961-1.1406h.0713l.0713.0713v.0713a3.09,3.09,0,0,1-2.1387,1.2832Zm.998,6.1309h-.2851l-.1426-.2139.1426-.1426h.1426l.1425.1426Zm1.711-.2139h-.3565l-.0713-.1426v-.1426l.4278-.57h.2138Zm1.0693-1.2119h-.2139v-.1426q.6417-1.5674,1.212-1.5684v.1426h.1425Q235.18,76.9138,234.0393,77.8405Zm1.4258-3.5645q-3.28,2.8521-5.1328,3.0655v-.2139q0-.9975,2.9941-1.9248a5.9091,5.9091,0,0,1,1.711-.9981h.4277Zm.6416,2.5664q.07-.9258,1.1406-.9267h.2139l.2139.1426Q237.6751,76.5578,236.1067,76.8424Zm-.2139-5.917-.1425-.2138V70.64a6.904,6.904,0,0,1,3.35-.9981h.1426Q239.2434,70.07,235.8928,70.9254Zm3.5645,2.0674V72.85q0-.356.9267-.4277h.4991v.1426q0,.2856-1.0694.4277Zm1.4258,1.4971h-.0713l-.1426-.1426q0-.142,1.2119-.2851l.57.1425Q242.4514,74.49,240.8831,74.49Zm1.4257-4.2061a3.8775,3.8775,0,0,0-1.7109-.8554v-.0713q.142-.356.7842-.3565a5.4341,5.4341,0,0,1,2.2812.9268l.7129-.1426h.2852q.7119,0,.7842.4278v.0712l-.0713.1426-2.2813.0713Zm2.9229,5.418-.2852.2139h-1.7822v-.2139q0-.2841,1.3545-.499h.3565l.3564.2139Zm.7842-1.64h-.0713l-.3565-.2139V73.777l.1426-.1426.4278.2139Zm-.0713-1.0694q-1.2833-.142-1.2832-.4277a.8382.8382,0,0,1,.4277-.7129q1.14.2139,1.1406.57A.6784.6784,0,0,1,245.9446,72.9928Zm1.4258-.8554h.3564c.4277,0,.6651.0957.7129.2851v.0713l-.3564.2852h-.3565a.5538.5538,0,0,1-.57-.3565Zm-.0713,2.4238v-.2139h.0713a2.907,2.907,0,0,1,1.4258,2.21v.2851l-.2852.2852c-.19,0-.2852-.1895-.2852-.57A11.1463,11.1463,0,0,1,247.2991,74.5612Zm-1.7822,25.8779h.2138l.2852.3565v.0712l-.0713.2139h-.2139l-.2138-.2139Zm2.5664,3.9922-.57.1426h-.3564q-1.9248,0-1.9248-.499v-.1426l.2852-.2852h.2851a3.1249,3.1249,0,0,1,2.2813.7129Zm-.0713-1.5684a.7436.7436,0,0,1-.7129-.57q0-.498,2.78-.57a2.138,2.138,0,0,1,1.7822.6416Q251.8616,102.7917,248.012,102.8629Zm4.2773-21.03q-.5712,0-.7129-3.7784h.0713q.4278,0,.7842,3.7784Zm.3565,14.6855V94.736l.0246-.2467a5.5972,5.5972,0,0,0,.5183,1.3431,5.3761,5.3761,0,0,1-.4717.6858Zm1.5683,1.0694v-.0032c.1079.2085.2114.4058.31.59l-.31-.0163Zm.7842,1.9248c0-.0665.0638-.1246.1791-.1761.088.1454.17.275.244.3855-.14.0017-.2727.0044-.4231.0044Zm1.2832,2.0673a.6109.6109,0,0,1-.6416-.3564v-.2139a.6862.6862,0,0,1,.534-.5343,12.3623,12.3623,0,0,0,1.2088.8731A2.0571,2.0571,0,0,1,256.2815,101.58Zm7.14,1.105a6.8309,6.8309,0,0,1-2.8516-.499c-.4875-.1483-.9175-.29-1.3058-.4263.0205-.1367.0392-.2931.0584-.4442a9.442,9.442,0,0,0,1.39.5141q2.7085.57,2.709.7841Zm2.709-3.208q0,.2139-.7842.3565a.5538.5538,0,0,1-.57-.3565l.2138-.2139h.9268l.2139.1426Zm7.4853-1.7109a6.1724,6.1724,0,0,1-2.6377.8554h-.2851v-.1425q.2138-.4981,2.6377-.7842h.2851Zm2.9941-4.8477q0,.4278-.57.7842-8.5547,4.2071-9.8379,4.2061a4.2176,4.2176,0,0,1-1.4257-.4278q-4.2071-1.5673-5.5606-3.4219v-.2138l.6416.0713v-.0713l-.7129-.9268q-.7134,0-1.2119-4.2773a3.503,3.503,0,0,1,1.2832-2.1387q1.9952-2.4228,7.4141-3.6357a32.5764,32.5764,0,0,1,7.2,1.497q1.5673.4995,1.5683,1.2832l.1426.0713a65.39,65.39,0,0,0,1.0693,6.8438Zm1.0694-2.78-.2852.2852h-.0713l-.2138-.2852V89.71l.0713-.0713h.2851l.2139.0713Zm0-2.5664-.2852.0713-.2138-.2851.2138-.2139h.0713l.2139.2139Zm3.4931-8.6259h.0713c.0948,0,.19.1191.2852.3564l-.0713.3565c-.0957,0-.19-.1895-.2852-.57ZM279.39,81.5832l.2139-.1426h.0713a2.1307,2.1307,0,0,1,.4277,1.4258H279.96q-.2856,0-.57-1.0694Zm-.2138,2.2812.2138.1426v.0713h-.2138Zm.499,1.7822-.2139.2139-.2139-.2139v-.2851h.4278Zm.7842,4.3487-.1426.1425q-.4278,0-.57-2.7089v-.0713h.2138a5.5643,5.5643,0,0,1,.4991,2.4951Zm1.2832,8.0556-.2852.2852h-.0713a1.1019,1.1019,0,0,1-.57-.6416l.2139-.2139h.3564l.3565.4278Zm26.5195-18.25c0,.333-.0957.5235-.2852.57h-.2138l-.3565-.3564v-.57l.2852-.2852h.1426A.6852.6852,0,0,1,308.2621,79.8009Zm-.1426-2.6377v.2139h-.0713q-2.0683-.57-2.0674-.8555h.7842A1.7571,1.7571,0,0,1,308.12,77.1632Zm-4.3486-3.208h.1426l.998-.0713q1.14.2857,1.1406.9981h-.0713a8.06,8.06,0,0,1-2.21-.7129Zm1.5683,2.2813-.1425.1426-.2852-.2852h.2852Zm-2.78,0-.1426.2138h-.4277l-.2139-.2138.1426-.2139h.0713A.6423.6423,0,0,1,302.559,76.2365Zm-3.7071-3.5645h.7129a4.1205,4.1205,0,0,1,2.3526.499v.2852h-3.1368l-.1425-.2852Q298.6381,72.7434,298.8519,72.672Zm.6416,3.3506.4991.0713v.1426l-1.5684.2138h-.1426l-.1426-.0712Q298.139,76.0949,299.4935,76.0226Zm-2.7089-.499h.499v.0713l-.2139.1426h-.2851l-.1426-.0713Zm-2.5665-2.8516.2139-.2851h.4277l.2852.2851v.2139l-.3564.2851h-.3565l-.2139-.1425Zm.9981,3.3506v.0713l-.2139.1426h-.7129l.1426-.2139Zm-5.6318-1.4258q.7836-1.4253,1.8535-1.4258h.3564c.4278,0,.6651.0958.7129.2852q0,.8555-2.4951,1.4971h-.2852l-.1425-.0713Zm-3.1368,5.917a7.866,7.866,0,0,1,1.4971-3.4931,10.6857,10.6857,0,0,1,2.3525-1.4258h.4278l-.2852.499q-.7134,0-2.8515,2.9941-.5,1.4972-.9268,1.64h-.2139Zm1.56,18.4269c.3036.1018.65.2264,1.0774.3934v.2139c-.5381-.0489-.9769-.1068-1.33-.1725A2.01,2.01,0,0,0,288.0079,98.9407Zm-1.56-13.7218h.2139v.4277q-.2139,1.4268-.7129,1.4258a.1891.1891,0,0,1-.2139-.2139Q286.0908,85.2195,286.4476,85.2189Zm-3.1367,7.2h.3565a6.1161,6.1161,0,0,1,1.497,3.4219V96.33c-.0721-.0691-.1392-.1313-.2138-.2037a14.5193,14.5193,0,0,1-2.06-3.0685C282.9741,92.6407,283.1119,92.4191,283.3109,92.4191Zm-.0713,6.8437-.2138.1426h-.2852l-.2851-.2851v-.1426l.1425-.2852h.2852l.3564.4278Zm.6416-1.5683h-.2138q-.3574,0-.6416-.9268V96.34h.2138q.356,0,.6416,1.1406Zm4.5625,2.2812.2139-.1425h.4277q4.0635.7132,4.0635,1.497v.0713l-.1426.1426H292.65Q288.4428,100.76,288.4437,99.9757Zm8.84,2.709a16.6945,16.6945,0,0,1-3.3506.499h-.9268l-.0713-.2138v-.2139q0-.2841,2.2813-.4277l2.0674.2138Zm1.0693-1.7109h-.4277l-.2139-.1426v-.1426q0-.2841,1.3545-.2851H300.42l.2139.1425Q300.6342,100.8318,298.3529,100.9738Zm3.6358-2.9942q-.5,1.0693-5.2041,1.3545h-.8555V99.12q.356-.4278,5.8457-1.3545h.2139Zm2.2812-.4277a2.423,2.423,0,0,1-1.1406.9268h-.0713v-.2852a2.1542,2.1542,0,0,1,.9267-.9267h.1426l.1426.1425Zm2.4951-4.4912q-1.4266,0-3.3506,2.9228a20.8629,20.8629,0,0,1-9.5527,2.3526,8.9187,8.9187,0,0,1-4.2773-1.0693q-2.71-4.7754-2.709-5.7745V90.423a16.6447,16.6447,0,0,1,.7842-4.42,15.8833,15.8833,0,0,1,3.4218-7.6992q0-.9258,5.7032-1.4971l.998.2139q7.77.0717,7.77.7841v.0713h-1.0693l-.0713.1426.4277.2852q2.0669.5712,2.0674.8554l-.2852.4278q0,.2856,1.64,1.7822.7838,0,.7842,2.9941v.7129a6.4371,6.4371,0,0,1-.57,2.6377Q307.5487,92.277,306.765,93.0607Zm2.21,7.2-.2852.2851h-.2138v-.1425l.3564-.2852h.1426Zm.3564-1.9248-.3564.3564h-.1426q0-.6415-.4277-.6416v-.4277a.4986.4986,0,0,1,.4277-.57h.2139a.8328.8328,0,0,0,.2851.7129Zm2.5664-23.4541-.0713.0713q-.2856,0-.2851-.7129h.2851l.0713.4277Zm2.2813-21.8145.1426-.2138h.4277l.499.0713v.2138h-1.0693Zm-3.5645,1.3545-.499-.1426v-.1425l.1426-.2139H310.9l.2139.2139Q311.0419,54.4225,310.6146,54.422Zm.4991-1.9961h-.8555v-.0713l.0713-.2138h.57l.2139.2138Zm.998,47.1221v-.9268l.0713-.57h.0713c.1894.0479.2851.31.2851.7842v.7129l-.1425.2139h-.1426Zm.7842,1.4258h-.3565l-.1425-.1426v-.2139h.3564l.1426.2139Zm-.6416-46.5518-.1426-.2138a.7368.7368,0,0,1,.7129-.4278h.8555l.2851.2139Q313.9652,54.3518,312.2543,54.422Zm3.4219,48.12q.8555.1435.8554.3565v.1426l-.499.1425h-1.4258c-.4277,0-.666-.0957-.7129-.2851Q313.8939,102.6144,315.6762,102.5421Zm-.4278-10.4082-.1426.0713c-.0571,0-.1044-.0856-.1441-.2379,0-.014.0016-.0339.0016-.0472v-.2852l.0324-.2268.0389-.0583h.0712l.1426.4277Zm31.2694-16.6063.0573.1306-.04.796-.1226-.102-.0859-.1959-.1351-.4856Zm-.9715,3.8456h.0713a.8192.8192,0,0,1,.4633.18l.7723,1.3546.244.8c-.1346.4362-.2483.66-.339.66h-.1426a27.0354,27.0354,0,0,1-1.2832-2.7089C345.3324,79.4689,345.4037,79.3732,345.5463,79.3732Zm-3.208-1.2119v.0713l-.1426.2138h-.2139q-1.7828-.9256-1.9961-1.7822v-.1426A9.2245,9.2245,0,0,1,342.3383,78.1613Zm-3.4219-4.7764h.1426q1.2114.4278,1.2119,1.2119a2.1155,2.1155,0,0,1-1.5684-.998Zm-.7842,3.85q.57,0,.57.6416v.1426l-.0713.1426a1.2014,1.2014,0,0,1-.998-.7129Q337.6332,77.3064,338.1322,77.2345Zm-3.2793-5.7031q1.4972.1435,1.4971.9268v.3564l-.1426.0713-.7129-.0713a1.4864,1.4864,0,0,1-1.5683-.998Q333.9262,71.6027,334.8529,71.5314Zm2.4951,3.5645v.0712l-.0713.1426a3.9925,3.9925,0,0,1-2.1386-1.0693l.1425-.0713A3.4345,3.4345,0,0,1,337.348,75.0959Zm-3.2793-.1426V74.882q-.1435-.1421.57-.57l.1426.0713Zm.1426.998v.1426L329.15,77.2345h-.9981l-.1425-.2138v-.0713q0-.7119,4.8476-1.2832Zm-1.3545-2.1387.57.2139q0,.2139-5.56.8555v-.3565a12.3126,12.3126,0,0,1,4.9189-.7129Zm-10.6221,1.9961.2139-.3564a12.4647,12.4647,0,0,1,8.7686-3.707l1.1406.2138V72.03q0,.4278-4.7764.9268l-.4277-.0713-.57.2139q-3.9214,2.9942-4.3487,2.9941Zm.7842,1.212q0-.7121,1.2119-1.0694v.2139A1.552,1.552,0,0,1,323.0189,77.0207Zm.2852,1.9961v.1425l-.1426.1426h-.1426v-.2851Zm-1.7822,1.7109a2.6036,2.6036,0,0,1,.7841-.9268h.3565v.0713q0,.4995-.9268,1.3545h-.2138Zm-3.6358,2.2812v.1426q-.2856.4995-.6416.499A.5671.5671,0,0,1,317.8861,83.0089Zm.0713,15.042-.0713.0713q-1.2129-.2841-1.3545-2.709v-.499l.2852-.2139q.6415,0,1.1406,3.2793Zm.7129-16.8242a.6423.6423,0,0,1,.2139-.57h.1425c0,.333-.0957.5234-.2851.57Zm.3564,8.9824h-.2138v-.1425l.2851-.2852h.0713v.2139Zm.7129,10.0518-.57-.57V99.548l.2852-.1426a1.0186,1.0186,0,0,1,.57.8555Zm.7129,1.9248v-.2852h.499q3.2784.7134,3.6358,1.212h-.7842A4.7053,4.7053,0,0,1,320.4525,102.1857Zm4.7764,1.7109h-.9268v-.0713c.0469-.1894.3086-.2851.7842-.2851h.1426l.1426.2139Zm2.6377-.499-.0713.0713q-1.9966,0-1.9961-.4277v-.2139a4.88,4.88,0,0,1,2.0674.4277Zm7.1289,1.2832q0,.3559-1.2119.3565-1.0693-.1436-1.0694-.3565v-.1426a1.2423,1.2423,0,0,1,1.1407-.57h.6416a1.0786,1.0786,0,0,1,.499.57Zm1.64.3565h-.0712a1.9375,1.9375,0,0,1,1.2119-.8555l.1425.1426Q337.9183,104.6085,336.6351,105.0373Zm5.7032-13.9727q.142,2.9238-3.85,7.2l-2.5665,2.1387a23.3663,23.3663,0,0,1-4.705,1.3545l-1.2832-.1426q-3.4937-.8554-4.7764-2.3526-2.71-1.2831-2.709-1.996-1.2129-2.2091-2.21-4.1348v-.4277a55.8379,55.8379,0,0,1,.998-6.9151q0-.7836,2.2813-3.208a11.15,11.15,0,0,1,2.5664-3.6357q0-.9976,8.3408-1.3545h.8554a8.34,8.34,0,0,1,4.1348,3.4931q2.78,1.9966,2.78,2.4952a13.5226,13.5226,0,0,0-.2852,3.1367,11.5112,11.5112,0,0,0,.4278,3.707Zm1.497-10.9785-.2138.2139h-.2852a3.5491,3.5491,0,0,1-2.0674-1.5684h.2852a3.3366,3.3366,0,0,1,2.2812,1.2832Zm1.711,15.042q-.4278,1.141-.9981,1.1406v-.0713q.356-1.2114.7842-1.2119h.2139Zm.7842,0-.2852-.2139h-.3564l.0712-1.2832.0713.499h.1426Q346.4018,93.988,346.3305,95.1281ZM347.4,91.5636a3.0747,3.0747,0,0,0-.6416,1.711h-.1426q-.2856-.1422-.3564-2.2813c.0468-.4746.1181-.7129.2138-.7129h.1426L347.4,91.35Zm.2851-5.4179v.2851l-.2851.2852-.2139-.2852v-.2851l.2139-.2139h.0713Zm-.2006-6.9941a8.6655,8.6655,0,0,1-1.0994-1.62l.1672-.1511.2611-.1145L347.6516,79l.0286.0652Zm.5306-4.8255-.0286-.0652-.1226-.102.1673-.1511.13-.0573.0859.1958Zm.6641,3.29-.1958.0859-.0859-.1959.1752-.31.2612-.1145.0572.1306Zm.4915-2.7844-.2611.1145-.1592-.008-.0286-.0653q.2263-1.9674.945-2.2826l.1306-.0573.0653-.0286Q350.149,73.1572,349.1705,74.8313Zm7.8037-5.9909.1306-.0573q2.13-.4673,2.2449-.206l.0859.1958q-2.4074.9006-2.608.4431Zm-2.6824-.6141.7182-.315.4409.118a2.2082,2.2082,0,0,1-1.0561,1.3194.9647.9647,0,0,1-.7674.0252Q353.3127,68.6562,354.2918,68.2263Zm-3.7521-.9234a.925.925,0,0,1,.583-.8006q1.8271-.8012,2.0284-.3446l.1145.2611q.1436.3274-1.5623,1.23-.935.1765-1.0491-.0848Zm.3771,15.9481-.1878-.0734-.0287-.0652.0447-.2531.2817.11.0859.1959Zm2.9722.5648-.2612.1145q-.4575.2007-1.5439-1.0354l-.0572-.1307.0652-.0286q.5877-.2576,1.9517.5453l.0287.0653Zm-.0549-2.0777-.2165-.1386-.0572-.1305.1019-.1226q.5875-.2577.7388-.0905l.0858.1959Zm2.38.28-.1959.0859-.5635-.22-.1718-.3917.0733-.1878a.8285.8285,0,0,1,.8533.1707l.1431.3264Zm1.8232,3.0926q-.9633.1121-1.1637-.346l.0653-.0286q1.0571-.0733,1.2.2521Zm3.198-2.6479a7.908,7.908,0,0,1-3.1474-.2545l-.0287-.0652.0733-.1879q2.9757-.1373,3.1475.2545Zm4.2137,1.2658-1.2817.095-.1145-.2612a6.0236,6.0236,0,0,1,2.0285-.3446l.0859.1959Zm3.1041-2.6845-.8773.3069q-5.123.9237-5.2367.6617-.0282-.0644.7423-.7925a9.8639,9.8639,0,0,1,5.5389-.3273l.0286.0652ZM351.7156,95.9l.18.2325-.2039.2451-.1878-.0733-.1145-.2612Zm.5906,7.9145-.0653.0286L351.46,102.24q-.7858-2.1459-.59-2.2323l.1306-.0573.1878.0733.229.5223Q352.6489,103.3539,352.3062,103.8149Zm2.932,1.3608-.4123-.0527-.1145-.2611.3264-.1432.3757.1467.0573.1305Zm4.1853-3.2365a2.86,2.86,0,0,1-2.4372-.41l-.1146-.2612.1959-.0858a5.36,5.36,0,0,1,2.4007.5041l.0858.1958Zm8.9131,2.3965-.3757-.1466q-1.87.3531-1.9837.0915l-.0573-.1305,1.9507-.7q.26-.1141.7925.7423ZM379.075,93.3213a3.3357,3.3357,0,0,1-.4926,1.5394l-.13.0572-.1146-.2611a3.5616,3.5616,0,0,1,.5212-1.474Zm-.6973-3.8977-.11.2818-.2245.0206L377.9,89.4l.3264-.1432Zm-1.6847-3.309q-1.5114-.4265-1.797-1.08l-.1431-.3265.0652-.0287q1.693-.0417,2.0376.7412l.229.5223Zm-6.2671,17.305.0286.0652-.1959.0859-.1145-.2611Zm.001,1.245-.4043-.2119.1306-.0573c.3917-.1718.6475-.1794.7674-.0252l.0286.0653Zm4.0444-1.073-.1307.0572a5.4686,5.4686,0,0,1-2.71.5657q-.1148-.2616.8-.662,4.3091-1.89,4.7339-1.4532l.0572.1306Zm.7857-21.2843a25.2706,25.2706,0,0,1-4.3192-.4412l-.0859-.1958.5876-.2577a11.1843,11.1843,0,0,1,6.4666.9006l-.0446.2531-.0653.0286A4.0232,4.0232,0,0,1,375.257,82.3073Zm2.9311,19.1094-.2612.1146-.1878-.0734-.0859-.1958.0733-.1879,1.3057-.5726.2531.0447Q379.4,100.8066,378.1881,101.4167Zm2.89-4.77c-.1744.0764-.28.0715-.3184-.0161l-.0573-.1306,1.4181-2.8015.1959-.0858Q381.8619,96.3037,381.0781,96.6465Zm1.132-7.8915-.1959.0858-.2164-.1386-.1432-.3264.2933-.7513.1958-.086Q382.5733,88.5179,382.21,88.755Z"/></g></g></svg>